<mxfile host="Electron" modified="2024-06-12T17:03:26.171Z" agent="Mozilla/5.0 (X11; Linux x86_64) AppleWebKit/537.36 (KHTML, like Gecko) draw.io/24.4.8 Chrome/124.0.6367.207 Electron/30.0.6 Safari/537.36" etag="aD_ubCi0KhNZa84k35l4" version="24.3.1" type="device">
  <diagram name="Page-1" id="ZxHn4kkPh-9wWUSMMcu7">
    <mxGraphModel dx="1674" dy="1191" grid="1" gridSize="10" guides="1" tooltips="1" connect="1" arrows="1" fold="1" page="1" pageScale="1" pageWidth="850" pageHeight="1100" math="0" shadow="0">
      <root>
        <mxCell id="0" />
        <mxCell id="jnwRGg6T7Idf9ew1dne1-80" value="Untitled Layer" parent="0" />
        <mxCell id="eBhDLRAJo3qDtjfBZI72-25" value="" style="group;aspect=fixed;" vertex="1" connectable="0" parent="jnwRGg6T7Idf9ew1dne1-80">
          <mxGeometry x="200" y="50" width="1225.54" height="670" as="geometry" />
        </mxCell>
        <mxCell id="eBhDLRAJo3qDtjfBZI72-16" value="" style="rounded=0;whiteSpace=wrap;html=1;fillColor=none;" vertex="1" parent="eBhDLRAJo3qDtjfBZI72-25">
          <mxGeometry width="1225.54" height="670" as="geometry" />
        </mxCell>
        <mxCell id="eBhDLRAJo3qDtjfBZI72-18" value="" style="rounded=0;whiteSpace=wrap;html=1;fillColor=none;" vertex="1" parent="eBhDLRAJo3qDtjfBZI72-25">
          <mxGeometry x="991.040318906606" width="234.49968109339406" height="80.95833333333333" as="geometry" />
        </mxCell>
        <mxCell id="eBhDLRAJo3qDtjfBZI72-17" value="" style="shape=image;verticalLabelPosition=bottom;labelBackgroundColor=default;verticalAlign=top;aspect=fixed;imageAspect=0;image=data:image/jpeg,/9j/4AAQSkZJRgABAQAAAQABAAD/2wCEAAkGBxQTEhMTEhMVFhUVFx8aGRgYGB0bIBghIiAaHR8eHSAaICggGiYlHhsdIjIhKCkrLy4uGiAzODMtOCgtLisBCgoKDg0OGxAQGysiICYyMi8tNTU2Ny0wLS8vLS0uLS41LS8tLS0tLS0tLTUtLS0tLS0tLS0tLy0tLS0tLS0tLf/AABEIAGABPAMBIgACEQEDEQH/xAAcAAACAwADAQAAAAAAAAAAAAAABgQFBwECAwj/xABMEAACAQMBBAQICAwEBQUAAAABAgMABBEFBhIhMQcTQVEiMmFxgZGToRQWQlJTkrHRFyNUVWKCorLB0uLwCBUzciRDg5ThNGOEwvH/xAAaAQACAwEBAAAAAAAAAAAAAAAABAECAwUG/8QAKxEAAgICAQQCAQQBBQAAAAAAAQIAAwQRIQUSEzFBUWEiMnGhJAYUI4Hw/9oADAMBAAIRAxEAPwDcaKKKIQoopf1bbbT7Y4mu4VYc1DbxHnCZIohLm9DdW4TxipC8ccTwHHs49tIkesT772unDr5o/BuLy4ZjFG3aigZLEH5C8BwyTxNR7naGa/V545pLTT484kUYluSOGVyMxrngPlE8OfKTsQ8SQKlos4hGd0yhRnjnexwJJ78ca5mb1KvHUn3qXVCZxJsrJKc3t/dTseaxv1EY8yR/aTXA2YeHwrK8uYXHJZJDNG3+5JM8+8EYpgurhUUu5wqjJNcxvkA4Iz2d3qrx1nWsvyeRWOt8RgVrrU8Nm9qzJJ8Fu0EF2BnGfAmHzomPPyrzFNNJ2taHDdKFmB4EFWU7rIRxDIRxU57fJUPQdqjayyWeoTqQqF4bhyBvqvjI/Ib65B/SB7+fq+l9WTMXtPDCYPX2x9orNz0hXAJuWt4xYb4GcsJwhO6JmHihe3d4HGK0cHurrK6t+0zOc0UUVeEKKKKIQoooohCiiiiEKKKKIQoooohCiiiiEKKKKIQoooohCiiiiEKKKKIQoooohCiiiiEKKKKISiutrLZEeQuSiMEyATvueIjjA4uxGOXePLiHp23MD2Ut9IGhijdkKvgvlSAAVBwGbIwuTzHHjVJtzZG2e0mTwkXr0UEgBJZcurceAyQ0YPZvjvpZ2C0RpJlilQrbWm5OY2cOXuGQIGbBIAURllT5O8O/AwsvFey3oSQNxoTTbrU/xl80ltbHxLSNirOvfO445I+QMAcO3NRZNBt5Xezs4I4baIgXUqKA0hxnqFbxicEb5zwBxzJpi2hv3jt55YxvPHGzKPKASPP3102ftkhtIEjbeUxhy/zy3hM5PbvEk+muC/WO6p7V9DgfzNfHzqdb+0VuriVQsaYwo4ABRhQAOwfwHo75WCNABgZVAB2ZIX3fwqWq9tUu2eRaSOOcbJJ9V1b+FeUS1sm1Uc8EzfWhLmRMjB8n25/hSbtVrGorcIlnApjDKDnG9JnJOM+KoA547u+nKJ8gHvGa53BnPbyqmPetDnuUN+DAjc8mkITLKc44qOJ8w7PfWe6NsxCdQ6025WOQSYVirqHQxjfUdhzvcTnJJIPbWkV4i3G8p+apUekjP7orbEzzjhwo13SGXcrtb0tDaXEQHCRGBJOSTgjJJ4n7uFYBsndXVzdRW5u7lVYnOJnBAAJOMnyV9E61OEglY8AFJ91Yf0QWm9czzdiJj0sfuBr1f+lC9qt3c8xTNbsQkRr1HZnqopJDf3+I0Zv9c9gJ7q0LolgkXS7dpXeR5QZCzsWPhE7vEknxQtKO2NrLLZyxwLvSOAuMgcMjPMgcvtrpp+2OrwxRxJpsG7GiouZOxQAPldwr1+TTo6UTnYmRtdu02Gism+Pus/m2D2n9dVGsdMGo2pAnsIk3uRJYg+Yg4PmpU1sPYjosQ8AzcKKyuLbbWCAfgFqMgHjKc8ePzq7fHTWPyG19qf5qnxP9Svnr+5qVFZb8dNY/IbX2p/mrn466x+QWp/62P/tR4X+oeev7E1Gisc1rpseBerewZLoeMryAoBwwylRl88eHDHea407pB1uZQ6WNsqnkX31z5gZM+nFVCMToCWLqBsmbJWHf4gtpZori1gt55IisbO/VyFSd44UHdOeG4Tx76uDtlrn5HZfWb0f8ykLa/ZzU9QuWuZoolYhV3UkGAAMcN5ie8+mr+F/qV89f2Ja7HaVcXNqk02oX6s5OAs7AYBwOee0GrTQ9PmTWbKBb28lTdaaVZJmYYUHdBHLBYDn31d6FY9RbwxcMxxqpx344+/NI67XT2+sXD2tutxJuCFQc+CBulvF/SHM01dUFrGhzEqL2e07PAn0VRWS/H3WfzbB7T+uj4+6z+bYPaf10p4n+o75q/sTWqKyX4+6z+bYPa/111fpaurXjqGnFEbO60Tg8ccAckj3+g1BrYexJFqE6BmuUVilj0wX907fBNORlHzmY487eCufJVj8fdZ/NsHtP66BWx9CSbEHszWqKyUbe6z+bYPa/11z8fdZ/NsHtP66nxP8AUr5q/sTWaKw3UemPUYJBFLYRK7YwCX454cCDg8e6rj4+6z+bYPa/11ArY+hLGxR7M1qisl+Pus/m2D2v9dHx91n82we1/rqfE/1K+av7E1qiskfpF1aMb8mmRlF4kJJxx5MFj7jT1slthb39us8bBOJVkcgFGGMg9/Ag58tVZSvuXV1b0ZdX1lHMjRyosiMMFWAIPoNIew9mkI1BIkVFF/KoVeSgLGFHDyYPpNPGranFbRPPO4SNBlmP2DvJ5ADmazjYi+ka4uzNGYheMbqFCMHdzuHPZvbojbH6Wa4/Wj/iMB7mtf7o5EUoaHaSR3UtorD4LFuzAZOVL5xGD83eBfHo7cU31SahpUqzG5tHUSOAJY5M7koA8E5HFGA4b3dzFeHwLgA9ZOtjjfrcaYfMu6Xtt71FtZYt9esmAjRCRli7BfF5445PmNdJIr6fwZClsnb1LFnbyb5UBB5gT5alafsxDFxVBvdrc2PnZvCPDvPbV666cZw9j7I+Bz/cgkn1LKwP4ta5vZyilgMgcWPcACSe88By7TUTWEURcSV3eO8Dule8g9lIVhtdNLYzC7wizCSGO4wQI3wQI58DwCVIIfkd4eXGmH05ssmxfW+RBn7eI/6XrlvcKGgmjcHuYZHnHMeapzuBzIHn/v8AvNYhsZsUss3UpIlwXZOskizuwRqwLnrOW+wAUBSeZyR2a8vRnY9vwhgfkm4lx29zceddlv8ATCMdo51MvNM66W9t4+qa0gcM7cJCOO6O0EjkTy8xNefRHZblm0h/5shx5l4fbvUmdLKwpqcsNtGscUAWMKgAGQN5uXM7zHieNatsnZ9TZ28fIiME+dvCPvNev6Ngpir2J8Tl9St/4/5nXW9pbe1ZVmZgzgkBVLHHfw9PqqsfpDshzeQf9Nh9tXOw0PX63dyniLWBYl8jP4Rx6Aw9NLX+JLUczWluD4iNIf1iFH7h9dO2ZbhiBMqsGsoCYz6NrMN0nWQtvKDg8CCD5QfXVF0lSRrbR9by+EJxxkgcS37Oa8eii03LHe+lkZvQMKPeDXnt5pr3txbWiHACtK7c90ZCg+4j00yzFqt/JiqIqZBAPAnr+Eqx/wDdH6n/AJo/CVY98v1P/NSLbo9sFUKYmcj5TO2T9Uge6vT4hWH5P+2/81QBdr4kk42/mRPwlWPfL9T/AM002V2ksayxsGRxkH+/ViqH4hWH5P8Atv8AzVfWVokSLHGoVFGFHd29vlNa1+Tf6phd4dfo3uL2tadHcajah1DdTE0jAjgfCAQHvAbJ/wD2mK9u0iRpJWCooySez7/NVPov4y7vZexSkKn/AGjLD6zVC29Qyizs153Nyi/q5GT6N4Gs+7sUvNO02Otc6N0i2Yz/AKxA7RHw+2vfTNu7S4lSGPrN9zgZTh9tOHTHeLbaRcboAMgWJcYHjEA/sBqxLojs9+8L44RRk+k+CPcTS1eTYzAR23CqRC02GWQKCzclBJ8w50v7DWIWDryPxtyxkdu3BJIHkGOPpqVtfPuWc2PGcCNR3lyFx6iatLO3EaJGOSKqj0DFOkAvz8Tmgla+Pkys1vai2tCFnkwx47qgscd5xyqsHSLYfSP7Nquuia0We71O8dQw6wQxkgHgoO9zHduVVf4j7pFhs4FVQXd5DgDI3QFHrLn1Ui+W4YgTpV4FfaCfcstC2gguwxgfe3MbwIIIznHPzVE27UGxmUjO9uhf9xdcYpa6GrLEU8p+U6oPQCT+8PVTPtH4c1lAPlzdYf8AbGN73ndpoMXq2fmJMgrv0voSx0jTUtoY4YxgIMHyntbzk8aqdS22s4JDE8pLLwYKpbB7iRwz2cOWKutSuuqillP/AC0ZvUCf4VM6GNHVNLikdFLzs8rEgE8TujiR81R66pfcagAs0xaBeSzxPHSLYfSP7NqYdM1GO4jWWJt5G5Hly5gg9tZt093ivqfVoFAhiRDgAcTl+zyMB6Kcej6z6qwgHa4Ln9Y5HuxUY172Noy2Xi11JtZ12rtUluNPQgbwmL/qqu8w9JC0wXdysaPI5wqKWJ8gGTVMn4zUW7reADnyaQ5/dUVH6RbkpYyKvjSssa+XJ/iAa232hmmHaXKVzxPSLYfSP7M1K03beznkWKORt9zgAqRk92eVOuvW0Vho8n4tMwWu4CVHFt0ICeHaxHrr506OrPrb+AY4KS5/VBI94FJplOWAj9mDUqkzeRWdbObOTXRu5bcER/CpAN0cPknhw8tPGsXfUwTSn5EbN6QDj31ddDendTpVuT40u9K3DGd4nB+qFq+cfQmfTVPJnr0oaVJNaxSxJ1jWs6XHVc+sVM7y47Tgk+jkaXtV1iK4givbVgz2+ZBnhgAHfjf5uVyPPg1qVZX0x7K2q2z3aW+7K0iCWWPeG6hYbzsindfGAOI5kVwcvDF5Db0R/f4nWVtRvtLgSRpIud11DDPA4IBGfXyqo1/aAW0sCGKWUy7wCxKXbIwc4ByRgN2VIstZtnjHweaN1AAUKwYgcBxAORjlxqt2Ui+FapPK5yLFFWMZ4b8qtvE+VVAXHlrx3Tulm7LK2LpRuMO+l4lfN0go0ht4ba5M+D+LMRDL3FgSCBxzTqnIUo6Uq2GoXttKCPhMjXMMmP8AUVvGTPMlDnh3ZNSde2l6vdijRpZpSRHEg8J/TxCqO1jwqeodN1eKKE1+fuCPxszpthdb+5bITvTcOHYny29Xg9nFhXvsGoF/qUOAUZIJCpGRkh1Jx5Qq8DVVabParHI8j29vLI+PCE5XcX5gBTsJPnNX+xmz10l3LeXSxxb0IhSKNzJkBi5Zm3QM9gx5eXb6LpmBbikKRxr+5i7Bo6QQKg3UVVXuUAD1CuZZAqljwCgk+Yca70sdJmpfB9LvJAcHqig874Qerez6K7kznzBvNe6gWPE3FwSf13z/ABr6BJAHHgB9grA9h72KC8jmnJVEBOQpbjggcB58+itE1vpCtGt5lhkfrGRlXwCOJGOZ4cM09jOqKSTzOdmVvY6gDiPPQpBvW1zdnndXLuP9oO6PfvVi/TDqPX6vdEHhGwiH6gAb9rerZdlNtNNsbG3tnuoxJDEA6AMSH5uPF+eSK+d1uRJddbPkK8u/J5i2832mk97bmP60vE3rZ2y6m1gi7VjXPnxk+8moejHfu7yXsUrCv6oy37Te6oP4Q7Hid9/ZtSlsbt0sLTrcK25LIZQyjJUtzyOHA8P7NdLz1jtG5xxj2kOdcmaFtR8J+DsLPHWkgcwCB2kb3DPL30h/BNe+c/tI/vpm/CJY/SP7NqB0i2H0j+zapdqnO+6FS3VjXZuUWmWetddGJncR7w3z1ieLnjyOeVaQ7hQWPJRk+YUsjbuzPIynu/FNxqv2j21ge1nSLrTI6FVzGw8bwefIcCTVVupQHT7g9V1rDaal3sWh+CrI3jTM0rfrMccvJiom0lrdLd2d3axJMbfe8B2AGTwycke48xS9sl0gQxwJBdB0eMboIUsCByyOYIFXv4Q7H57+zap8lT1hSYeO6u0sq7lft7catqkUcUlnHGqPv+BIpycEcct5T669+jPZuW0SYzpuvIwAGQfBGe4nmT7qk/hDsfnyezauPwi2Pz39mapWtCNsNNLXyLF7Ssm7R+HPYwfOmMp80Yzx9JFXx8norKdY27j/AMwguIsvDGm6RjB8Le3iM9uCPVTcnSDYEZ64jyGN+Hk4CtUuQk7MxsxrAq6E8djtb1LTYGtk04TfjGcydZjeLY7s9wpe29ttS1W4SV7PqgiBFUOCBxYkkkjtPuFNI6QLD6c/Uf8Alo+P9h9OfqP/AC1gaKd77oz/ALjI1+yT9ktHNpaxwtgsMliO8nPpxyz5K8U/Gak55i3gC+ZpDn91ffUKfbuBgVtEmuZccEjjb38OXmyaS9k9uDDc3DXYbE5y5A4oy5xw54AJGOzArU3VjSg8TFce1gzkcmaPtdZSTWc8UOC7qABnGeIJHHlkDFeOj7balbwQ266SpWGNYwetAzugDPAduM1GHSBYfTn6j/y0fhAsPpz7N/5aLVqsOy0KGvqXtCxH1PZbUL69knmh6rrpN5iWGEB7BxycDhWtWsAjREXxUUKPMBgfZS78f7D6c+zf+WqTaXpKiEZSzJaRhjfIICeUA8SfRjz0V+KoEg7k2i+8gMuhGTZbwzdz/SXDAH9FAEX7DULbeCdpLNoYDMkUvWumQAxUjdUnszx7KttlbTqrO3Q8+rBPnbwj7zUbUNsrOCRopZt115gKxwcZ7BitCF8emOtzFWfzEoN6lftxtFqeoWrWv+XGJXZSWEgYkA5A5DtA9VV/RtslLas81woViu4q5BPMEk4zjlj11b/hAsPpz9R/5a4fpBsMEiZie4Rtk+sVildKHfdGLbcixe3th0jykWfVr488iRqO/Jzj3e+ti0uzEMMUK8oo1QeZQFH2VmOyugT6hdQ3l1E0FrbnegikGHlfsdl+SBjI9GO01rFKZFgd9iO4lRrr0YUGiisIzFvU9gtOnOZLSLPegMZPnMZGfTVhs/s/b2UZjtYhGpOTgkljyySxJPrq0oqNCEp9ptm4b2MJMGBQ70ciHdeNu9GHL7DULZjYuCzkeYPLNO67plmffYLz3RwAUZGeVMtFGhvcIUUUVMIVk3+IvUtyxggB4zTZI7wgyf2mWtZr576ebk3GqW1onHcRVx+lI2f3QlQTobMI79H9mttpULOq/wCm0zEgduW7f0ceqrDYS3S30gXU0abzJLcuWA47xaQEk/o7tS9U0nrbR7VX6sNF1W8BnAwBy4dnD01Q3Oy169sbVtTbqSnV7gt4x4IAAGRx5cOdeW6d1OlHse1uSf6m7oeNRE6ELMzXlzdSAMVU8T852zn1A+uu3S9/xGp2togHAKpwMcXbyDux660TYXZFNOikjWQyGR94sV3eAGAMAnyn01neg/8AGbRySc1id29CDcX34NaVZguyrb1P6VXj+ZBXSgTVdZv4LSIPIng7wRQibxJPBQAOJpfu+kOxiKiaK4iLcustyueXfzxmrLWU67UdMt+YV3uX8gjXCH67Cs66ZZjd63Daqc7ixxc+Rc7x9zD1VHT+nJdj+a1m2dn38QZ9HQmn6/BBLZzGREaIws+SvZulgRwyD3dorLOhHZuOV5rqZA/VELGCMgMcknHIkDHm3s099Kd4INLmVeG+FiUeQkZH1Qa8+iHT+q02IkYMrNIfXuj3LSNVz09OsbuP6m0JYjbiWl/tTDHK8KQ3E7R43+ohMgQkZCkjgDjsqDfbewwoZJbS+jQcCz25UDPLiTjjw9Yr0tNnb2GS4e31ERieVpWBtkfieQyxzgAAeis96Y9RvUWK1ubwXCv+MKiFI90gso8XieO95OFO4WJg3aUMS3z7lWZhGfo/0yG8nutTkjDGSdlhDgeCoxhscgSCB5MHvpiv9qbaKV4RDNK8eA/UwGQITxAJA54415dGMCpploFIOULHHeWJPq5VzDs9eQy3D2uoGJZ5DIym3jfBOB4zceQAHIeSk2tqfMcZDEKOB/1LaPbxOg2wg/I73/tH+7+8VL6PbQTz395JAyLI6RxLLFuEKicTukdpbn5MdlRb+71Szje5N5HdJEN94mgWPeUeNuuhyDjJGc/wrQdPvFmijmTxZUV1z3MAR7jXf6bVjc2UMT8e5k5PowFjF9Gn1R91AsYvo0+qPuqRRXVlJH+BR/Rp9UfdR8Bj+jT6o+6pFFEJ0ihVfFULnuAH2V4T6bC53nhjY97IpPrIqVRRCQhpEA5QRezX7q7f5ZD9DF9RfuqXRRCRHsoVBYxxgAZJ3Bw91fIcf/GX/Af+ouCccsBnJ7OWAa+wL+1EsUkTEhZEZCVOCAwIOD2HjWdR9CGnKQVkugRyIkUEfsVIOjII2JIIx5APsqP0N6ZHNbXF1LGjm5uZGUuoPgggAcc9oapJ6ILT8ovvbj+SnLZ/Ro7O3jtoc9XGMDeOSeJOSQBk8a3uv8gA1FsfG8RJ3vc9DpFv9BD7NfurvDpsKHKQxqe9UUH3CpVFLxqFFFFEIUUUUQhRRRRCFFFFEIUUUUQhXzjYyfDtppJOapOzDt4RAqv7q19BazdmG3mlUFjHGzAAZJIBIAA5knhivnnoqLWdxPNdW12GZN1N23kbOWyx4DhyHrNL5ff4H7Bs64kr7mnbTmSW5sbOKaSEzu7O8ZAYIiEnBIPMkdlJPSy0+lm3WDUbyR5d4sJHU4A3QMbqjmSfVTtshMbvVJLrqpkigthEnWxshLOxZsBhxwFA9NIHTPbz3GrIOonaGFY0LLG7Ag+GxBAwfHx6KS6dhLVjKrqO754lnbZmi6ddPDpizTOWkS26x2JySd3e7fLwrP8AoHsyz3ly3EndQHzks32D11cbdbTCexmgtra8LyAKM28gAXIJ4kdwxUTo01VbKzEU1veCVpGZsWzkccAccdwzXJXEvTEu0n6nPr8TTuHcJfW20dpBrF1JdTLEIbdIY94McliZHIwCB8keqkXY8G/1+a73WMayPKCRyHER5zyPi+o1oh2xt/ya8P8A8R/urkbZwgHctb0nsVbVwT6wBWwyMoY3gWkg61uRpe7e4o9O96dy0txzd2cjzYUfaac9Vc2GltuHBgtwinlhsBAfrHNZbrs91darFPc2dzHDE6ruiJ3Kqp3jyGCePHFP2saqL97W1iguQr3MbSmSB0URod9slhjjgVDdPt7KKdcA7aHeOTLux2CkMcZk1PUA5RS4WVMBsZOPA5Zql1PSNHgkuIdRvpJpZEVT8IbeaMA767pRBuniD6uFatXzdcCR9fkvJ7a5MK3BIIgdshAVj4AcfFXzivQeNKwWVRuZb3GXTrLRrdStvrV3EhJO6kmBnvx1X9+ilrWNbn/zGK203ULqaJig32bPhMePDdAIAxzHYeytH+OFv+S3f/aP91dl2wtxxFtdjzWj/dXGsy7W3/jHf/vxNAo+57dIc7LYTqnjzbsK+UyMF+wmnuwtRFFHEvixoqDzKAB9lINlbT6jc28jQSW9nbSCUdcu7JPIM7mE5qqnjk860Wmej4jY+Ppxok7lbG2YUUUV1pSFFFFEIUUUUQhRRRRCFFFFEIUUUUQhRRRRCFFFFEJ//9k=;" vertex="1" parent="eBhDLRAJo3qDtjfBZI72-25">
          <mxGeometry x="994.5019808656035" y="5.583333333333333" width="228.24576206765488" height="69.34472516830415" as="geometry" />
        </mxCell>
        <mxCell id="eBhDLRAJo3qDtjfBZI72-23" style="rounded=0;orthogonalLoop=1;jettySize=auto;html=1;exitX=0.5;exitY=1;exitDx=0;exitDy=0;entryX=0.5;entryY=0;entryDx=0;entryDy=0;" edge="1" parent="eBhDLRAJo3qDtjfBZI72-25" source="eBhDLRAJo3qDtjfBZI72-1" target="eBhDLRAJo3qDtjfBZI72-3">
          <mxGeometry relative="1" as="geometry" />
        </mxCell>
        <mxCell id="eBhDLRAJo3qDtjfBZI72-24" style="rounded=0;orthogonalLoop=1;jettySize=auto;html=1;exitX=0.5;exitY=1;exitDx=0;exitDy=0;entryX=0.5;entryY=0;entryDx=0;entryDy=0;" edge="1" parent="eBhDLRAJo3qDtjfBZI72-25" source="eBhDLRAJo3qDtjfBZI72-1" target="eBhDLRAJo3qDtjfBZI72-9">
          <mxGeometry relative="1" as="geometry" />
        </mxCell>
        <mxCell id="eBhDLRAJo3qDtjfBZI72-3" value="&lt;font style=&quot;font-size: 35px;&quot;&gt;Datanode&lt;/font&gt;" style="rounded=0;whiteSpace=wrap;html=1;gradientColor=none;fillColor=none;" vertex="1" parent="eBhDLRAJo3qDtjfBZI72-25">
          <mxGeometry x="223.33302961275626" y="418.75" width="357.33284738041" height="139.5833333333334" as="geometry" />
        </mxCell>
        <mxCell id="eBhDLRAJo3qDtjfBZI72-8" value="" style="rounded=0;whiteSpace=wrap;html=1;fillColor=none;" vertex="1" parent="eBhDLRAJo3qDtjfBZI72-25">
          <mxGeometry x="223.33302961275626" y="418.75" width="53.59992710706149" height="52.34375000000002" as="geometry" />
        </mxCell>
        <mxCell id="eBhDLRAJo3qDtjfBZI72-6" value="" style="shape=image;verticalLabelPosition=bottom;labelBackgroundColor=default;verticalAlign=top;aspect=fixed;imageAspect=0;image=data:image/png,iVBORw0KGgoAAAANSUhEUgAAAgAAAAIACAYAAAD0eNT6AAAACXBIWXMAATr1AAE69QGXCHZXAAAAGXRFWHRTb2Z0d2FyZQB3d3cuaW5rc2NhcGUub3Jnm+48GgAAIABJREFUeJzt3XmYJFWVN/7vjYjMql7ZRPgxKMjoqMPIIgiioDDzIoKydDe0jjqOOi4zOq84boPiUi6DgkBvNAiM/nx9Z9yYUVFBwVEElaVBRbBBVlm76b2ruqpyiYh73j+iqjqzKrPqZmZExo2I7+d5fKSzbp24VXkrzjmRsQBERERERERERERERERERERERERERERERERERERERERERERERERERERERERERERERERERERERERERERERERERERERERERERERERERERERERERERERERERERERERERERERERERERERERERERERERERERERERERERERERERERERERERERERERERERERERERERERERERERERERERERERERERERERERERERERERERERERERERERERERERERERERERERERERERERERERERERERERERERERERERERERERERERERERERERERERERERERERERERERERERERERERERERERERERPFQaU+AiOZ28r/f/Z6FJfXl2caIiFEss1GAYTjjeK0G/vAdR3AfRJQSJ+0JEBERUf+xACDKgSx2/0SULhYAREREBcQCgCjj2P0TUTe8tCdARHPbPFKvb3d6y6TWFwpE1FcsAIgyYKTqB16b43VxJmzzWPEWE0TUf/wIgCjD4u7Wiag4WAAQUUfY/RPlAwsAooziZ/VE1AsWAEQUOxYTRPZjAUCUQWl1/6aH/4nIfiwAiCgVrCWI0sUCgChjbO/+mdeJsoEFABERUQGxACDKkLx0/zz8T5Q+FgBEREQFxAKAKCPY/RNRnFgAEBERFRALAKIcYfdPRKZYABARERUQCwCigmH3T0QACwCi3GCCJaJOsAAgohnY/RPlHwsAohzgI3+JqFMsAIioK+z+ibKNBQBRxvGRv0TUDRYARJQY1hJE9mIBQJRhtt/4h4jsxQKAiIiogFgAEGWU7d0/D/8T2Y0FABERUQGxACDKIHb/RNQrFgBEREQFxAKAKGPy0v3zIAFRulgAEBERFRALAKIcYvdPRHNhAUCUITy5jojiwgKAqKDY/RMVGwsAooxggiWiOLEAIKK22P0T5RcLAKIMCMUsd/KRv0RkigUAEfWE3T9RNrEAIMoJPvKXiDrBAoCIEsdigsg+LACIcsD2G/8QkX1YABARERUQCwCijLO9++dBAiI7eWlPgIjmJpWdpbbletwZNu7j+qwAiKzEIwBEGZaXRwMTUf+xACAiIiogFgBEGcXun4h6wQKAiIiogHgSIFEmqFvqWt6RVHStHIGKOWjc8YiIiIiIiIiIiIiIiIiIiIiIiIiIiIiIiIiIiIiIiIiIiIiIiIiIiIiIMos368yI13313n9aPIDL233d/MEwdj3w5Zq/O8xoDZ5y1d3/uGhQXTG1XcP4cT8wx5TJg3UEwLVvO8Lo5/+bK+9+z4IyvjxXPCMWrZXr/+FI7oOIUsKHAVHX0nraWx6SPxFR2lgA5EBa3T/ZI4vdPxGliwUAZUpeun/mQyJKGwuAjMvqZ/8UH3b/RNQNL+0JkJktI9X6SGnm62l1xP3udLdUwtqOami2zZjnFncC6+Ycgc2j9Zrn6DbxDLdruC3bf39EFA8WABkxEgTBgG4+YbpIO/7hSi0sGR6vir0osuD3Mlz1A6/Nz296xYGJtNYUEfUfPwKgXMlj8p89HhMsEXWHBUBGFan7p/5g909ULCwAqHCK1v0zDRNRKywAMigv3X/sl+DFHI9mYvdPlB8sAIhaKFr3z3xNVDwsAHKK3X+bcUx0ieNHE0TZwAIgY5jA7FG07p9LjyhfWAAUWF4SSVqX/lH3+BsmSh8LgAxhp5Y9Rev+WTwRZQcLAJoVu//etktEZCsWADnDTi2/8tL9c+UR2YEFAPWM3X9v2yUiSgMLgBxhp0bs/onIFAsA6gt2/0REdmEBkBO23/iHksfun4g6wQKAMicv3T8TIhGliQVADtje/TPR2YPdPxFNYgFAuVS07p8Jlog6xQIg44rW/TPRJY/dP1ExsACgwipaUcQTNomoEQuADGP332YcE13i2P0TZR8LAKJZFK0oYsImKg4WADmXl+7fFB/5aw/+honsxgIgo7hztUfRun8WT0T5wAKAcpNI+MhfIiJzLAAyiJ1a9hSt++fKI7IfCwCKVdG6f9ZYRJRVLAAyxvZL/yh5een+uaaI0sUCgPquaN0/8xwR2YgFQIbY3qkx0SWP3T8RxYUFAGUau38iou6wAMgZ2xMdr0xIHrt/IjLBAoAyq2jdP/MmEcWJBUCO2J7o2P3bg90/EbEAoFyzvSgypUPD7TLBEpEhFgA5YXuiS+vSP+oeu3+azfGX37PXy1asOyLteVD3WABQ4RWtKGIepl6duHb9QkjtxvmDzh3Hrb3rCycO3eSlPSfqHAuAHGD335/t0kzs/ovn+auvHwhQud5z1NEKKA84OC949sLfHbXitpemPTfqDAsAIgO5KYqM4zFj00yHDq0v7+886yeegxMmXxMArlJ/tWCgdNtxa9etPHRofTnFKVIHWABQE9sTCR/5S5SOE4du8vbet/I9z3VObPV1pVAuO865e+07fu9xa9e9or+zo26wAMg4Jjp7WF8UGcfjyX80zdCQo/dd+F3XwWmNL7d6a11H/UVJOTcdu+auCzA0xBxjMZ64kRF6fLgER838Qtx7V4NwaRQdUt3lCcyuhTM/SmA4zvQnSTDRiT/ioW54LWDbIKbj+r+myGaijt/3rm85jjq98dVNoz52VgIctOcABkrNeV4plAc9fOz4fU8/OVx7+t/e9r6jHu7rlMkIq7MMY6eWPWndHdD2uyaSvU5Y+9vVnqPOaXxty5iPDSM1jPshHthawabResv32nXk6JLSdx278s5l/ZovmWMBQImIe78fhnZ3/0x0lEfHrrrz3a6L9zW+tnXMx9PDtal/axFsHKnjoa0V1Hw9M4hSe5TLzneOXbPuS4C0OIxJaWEBkFGpXfrHTGcNdv+UpOMvv+eQQU9dCtmdtLeP+3hquNZyDbQ6GjA5TilxBjznw6+87Df/c+zq2xcnP3sywQKAUhP7R82Wd//Mh5QlrtT+XTlYMPnvnZUATzZ0/q3MdTTAdfHXJc+767A1v39e/DOmTvEkwIzQqnRTTfvvAgAtSoD+H0nTglS2O7Htm2sh/qHP27QmZwd+eAtK7tu7+maDtywMtdnAmLdLdjp21Z3vVo46afLfw9UAj++sGhe7436IP24Zx/6Lynj2oubbAjgKL9jD8e942ap1Z9157jG3xjpx6gj/RImIaMpRV961x/wQj7oKewPAaD3EI9sqMw7rz2XyI6U95nk4aM95cKYfb9YYGw+CN9917suvjWnq1CF+BEBERFM8X86fTP61UPCn7eadfyvDlQAPbBlDdfpHAg4WzPe8/3rZynXv7WW+1D0eASAiIgDAiy64Y59n7+U96kAWC4CHtlYw3nD/iV5uJuUohQP3GMDeC0oNAwEoJRW//qk733/c53uaPHWMRwCIiAgAsHghhhzIYgDYtMtvSv690iJ4YmcVz4zUm78gouaVyp89dtXtn41tY2SERwCIiAiv/MqvFjm1gaddpRbVQsEfN481HfqP81bSe80v4bl7DEJNy0C1QH/+jvcf80nzWVMveASAiIjgVwbf5Sq1CAA2jtQSvY/DjnEfD20dRxA2b2TAcz5x7Op1n0tuy9SIBQAREcGDvBMAxuohdlaCpq/F/iApibbz0NZx1IJpRUDJPf+Y1Xf8q+EmqQcsAIiICu4lK9e9quyqFwPA09M/o09QNdB4aOu0KwRE1KBXuuDY1b99R98mUlAsAIiICm6BK/8MRF359BP/kuj+G/mh4KGt46g0XSaonbKnrzjm8jteZ7h56gILACKiInv3XaWS654CAJvH/FSmEGjBw1vHMV5vLAKkXBbn2y9d/ZuXpzKpAsjMVQBnfuWe9y2a71wGmFWaqT36vMP7zH/7LYcZvQenXv37f1o0T13e63ZN9evBMN/9+8ONfv6T//3u9ywsqS8bbq5hu/1/wI3xWyHAD99xhNHPf9KVd797QUmujGO7sT+7oIdnK/zknS81+vlPWPu7d80vy1VdbLan+fUQzuj3/LP3HJX6PvjIlbedscdA6dqkz/yPxs3+dc9ReP6z5mOwtPvXokVtqgY45jfnHv2E4XTIUOaOAPBpdPaw/alwfLpdfuUh+dtiwPXOAYCto37q8548EtB4ToCjZL95nvzw4KGbBlOcWi5lrgCIU9rdf7+3ax4vQ3uvrIr7PTMdZ1H3TzYQ5Sp5jQawvdJ8+L/f3f8kXwse3lZBveHqAKVw2P57LfiG4ZTIUKYKgLg7Okpe0bp/rj2LWN7927BWXnzxrSeUXOfZO8d9hNqGGUX8UPDItkrTfQJKJbXk2MvWfSzFaeVOpgoAmxWt+7dnV0FF6/659uKzoBwd/t9R7e6Wv3F3/43DqoHGI9uraKxLyo7zmSNXrnuV+QxpNl7aEzC1eTyoDtf1nOPi3snZ8jnylkq9NlxrFc/u7iWujxM2j9Tr2524iye7f3eNNg9X6q7bWzzb/zZms2msXnPGwo7ixflRlq1/F70qOep4XwtGa93d+Cdp4/UQj+2o4pC9Jz/+l9I8T/3ncZfeevhtH3zF9lQnlwOZKQBG6rVwIJz7gIXxH2qMO69+HPIbqeqg7DQXQEXY8U8aqfqBZ3i8Ko+/l+GqDly39XeardHsFDutDFf9wIFO4D0zjZdcp5uW/b50wwJXOYcOV5M9+a/X38lwJcCG4ToO2KMMAHAUDgxL3n8AOC2WCRZYrj4CSCP5k13ymPz7GY9mymPyB4DF/qKTPAel4WqyN/6Jw6bROnaM756n66hTj73sN+/r2wRyKlcFgM3S2vHnJdFR8mzt/pPariVH4VMzf9B7pQYwWovvkb/dMnkrnthZxVjDx8Ae9IWHrfn985KbVf7lpgBIq/sv+k7EJkUrimzs1Ioqa90/AAx6OHqsFkI3TD72NR/jD6xF8Nj2KsKJGkApLJiP+lfj20Lx5KYAKJK8JDrmpeyxPdGl9dl/FrkKh9nQ/ZsSAWqBxhM7K1OveQ5OPHrFnXxoUJdyUQDY3v3ndxeSPbYXRaZsnx/NZNPveL+hXz+75DnP3tXw4J+0uv9Ofy87KyG2je++aVG5JBcdu/L2/ToMQ8hJAUAz2Z7oYr9/QbzhqAdpfTRh+5n/NtlrUB2pBaj42TkC0OipnXVUg+izAEepfZTrXpzylDIp8wVA0br/DO5rMsf27jovRRulpzSgDq/44dR7anv3Pz2eFsHj22tTr7tKvenIS+842jAcTch8AUDdy0siYQLLnqJ1/7YtvRLcF48Z3FjNZuN+iM1jdQCAUuIMltQlKU8pczJdALD7bzPOtr1NDrH77y0epctVeMHk4f+sdf+NNo40fBTgqFcdvebOMwzDEjJeAFDyitb9M4FlD7v/zrkOnlPxs30EAIjegyd27L5HeknhQkBUilPKlNwXAEXrhGyfX5Gw+28Xj6svXaKUcvarBTrT3f+ksXqIrWPRVQGOwouOXrHujYbhCy+zBQD3IfYoWvfPBGYPdv+d2+f8nx8Qih5Iex5x2rirNnWDIM91zkt3NtmR2QIgTnlJJLbPj5LH7p/m8uy9Bv+82sHlfzZ3/1E8gR8KNo9GJwS6Lg576ZrfnGK4mULLZAEQ98l/lLyidf9cefZg99+sJOUDakH+7nG4ebSOehD9VCUdfDzl6WRCJgsAmxWt+8/bTiTLitb9c+11p1QO96uF8Z4AaMNjmrUINu6KTgj0Su4Jh11020sNN1dYmSsAbL/0j5JnewLjmsqeonT/EWe/WmD689r9k0y3fdxH1deAiBoccP8p7fnYLnMFQB4UrfvP2D4k12wvnkxx7XXPgezrx3wEwES/TticPBfAc9WyQ4fWlw03W0iZKgBs7/65r0me7QkstSsimOkSZ3tRZExhD1/Pve00Hvkbh+0VH/VAoBT2mr/32Dlpz8dmmSoAaKaiJTpKnu2JLq1L//KiHsr8tOfQThzvmQiwZeIogAO8LYZp5VbuCgDbu392askrWlHEEzazJ839gB/oeXONSfuRv73aOu4j1IDrqBP5qOD2clcAFEnhEl284agHRev+bU103dCCBWnPoRcm75kWwbZxHwA8LTgz8UllVK4KAHb/ZCo3RZHl8yP7+OHsRwBsv/GPqe0TtwdWDk6LN3J+5KoAoJnykuhMMYHZg91/u3jpLtJQI/dnxotEjwuuBhqe470KQ0PMdS3k5pdStO6fiS55thdFtq95slMIabvft7377/SEzW1jPqBkr6P3OOVVHX1jQXhpT4DSl1oisfx+CGSPUIdw1dxPeWX3Pzct7QuAvNk+7uOAxQNwHfcfjlx15/6O6INcRx8IOAcqqAOUwkIAUFALBeJOfaNgTEMNAzIiGsMAhrXWT4onD0rgPBCGg/ff85HDx9L6ueKSiwLA9k6IiS6/2P23i8fVZyuR1pVUXrr/xniBFoz5IRaW3bfMA94SHfSerH8a4wmafikKcCa+vrtcmviPMgDU8PLVd24JIQ8jlLtDR90JL7z9t+877n6zn8YOuSgAKHlF6/6ZwLKH3b8ZrbU796j8GKkGWFju7kee7R1TjuzrAfvCUce5gn+CdvHy1etGQsHvglDfLOLccPeu62/H0FD/b7toiAXANLb/0ds+P0peXrp/Lr106BZvUB67/0kj1QAHLB6YETERCotdhVe7jvNqAJ86du/ThvXKU28PgRvGav63H/jX4zcks+HuZL4A4E1Q7FG07t/2KyKKhN2/Oa1VrUh7xIqv4YeCkjv3OSTdmO2tVQp7uK46xQVOKc0fvPhlq+74faDlR6ETfueec1/5h0Qm1IHMFwBpKFr3X5xdhf3Y/VOvQki1m+/LYvc/aaQWYJ/5JYQC1IOoIPBDjVbPRBABHAU4DuAqBc9V0f87CiVXweBc1Da04zjqyLKjjgScTx69at0j9SD8VuiHV60/7/gnuo3ai0wXAOzUsqdoRRHXlD3Y/Ue0NB8BsG1+SXh6uIandtagxfxCwla/FqWAsutgwFMouwplz0HZcTCv5GCw1NnFFa6DP59Xds+XkvexY1bdcWtdy//dOVz5+mNDJ3VVoHUj0wWAzdL6o2Kio6J1/1x7nRHoukJCh8NNx/X5I5twotPvdX4iQC3QqAUz5+cohXklB/M9F4MlB/PLLuaXHCg1x8mEShwodfyAo47fd68FF+95yR0/rIX6kvs/etxvDafbtcwWALYfCqXkFa37L0Knlra8d/8AoKCmOkx+ZBMfLYKxeoixejj1mqMUFpQdLCh7WFB2saDswp3lQIFSWFQuqTeVy97fHr1y3a1BKKvu/tAx/wWoRN6BzBYAeRD3O2p7orNxZ1hURev+i/bI31kJdiV0AMBs89afsGkab+6BWgQj1RAj1agoUAqYX3KxeNDDooGoIJg8p6BpuyLKcfDKsqNe+bJVdz5aD2+/3FvgXfGb9xw9bvhjGMnkHaFs7/6Z6JJXtO4/dMwicuXZw9r9gMJOIL1L/4pMBBirh9g4UsODW8Zxz8ZRPLqtgq2jPvyw9W9QKRwy4DkXO1X95Esuvf1zh669aWFc88lkAUAz2Z7orN0ZUltF6/6LkugUZCTtOcwlD92/SbxQC3ZWAjy+s4p7nxnF/ZvH8MxIHZX6zHsHKYW953nqEwuChU8cserOz8dRCGSuAMhL95/1nUgWWF8UGcYzxRM2yYQOnZ223/inqCq+xoZdNdy/ZQz3bRrDxpE6qv60YkDpvcpKnz8/WPDYESvuGHrhhb9a1O32MlcA0EzWJ7qULv2j5LH7bxfP4kXqRR8BZF3Wu//d8VqrBhobd9Vw3+ax6MjArlrTxwRKyT5lF59ePDjwyOGX3v6hE4du6vicvkwVALZ3auz+s8f2NWXK9vmRPSQ0KwBsT7BFUvE1nh6u456NY3hgcwVbx3yEEwcGlNL7Dnjq4vG9FvzhqBV3nNVJ3EwVANS9onX/3IXYg91/b/HippTelNKm+y6r3f9s8UbrIR7fUcM9G8fwp+1VDFcmbkqg5IWOg+8dtfL2n79kza0vMombuwKgaN0/E509itb9W32Ym9oKlWyca4zt3T+XXnSJ4fbxAA9vq+LejeN4ZlcdfihwlDppIHTvfsmlt3/h0KH15dliZOY+ALq6y3Cuae2Fk12RurKz1PJeEDFu1+Y/Ul0ZLjmG98KwPtF1EU7Gh0tAj08VNd5u3L9A0+3OEmJ8ZwnK/sI9C1fFqMDbADece2BBZKn7b6ceajw1XMPTIzXsOejhWfPLA4sH3fNkr9GlL7n01nff+8FX3Nzq+3J3BMCE7TsRU7YfaqSZ0qolUtvJcfFZZ/QLJ2wFnHq7r+el+y/i0hMBdlQCPLRtHOs3jWHLqP8XJeX9/PBL7viP56++ffH08bkqAHjySPLSOkTX6hnmvWzX9uKOZrL9vc1C9x9RoqC3pDyJXLKpeKoGGk8OV3Hvpl3OptHam+cHWP+SS28/s3FMrgqAONmeIGy/cx0lz/oOjGvKWgI80/J1ixJYb/EMxxXgyoRQCzaP1bF+0+iBG0dq33vhBTd/+9Ch6/YHMnQOwFx48og90koQeekQqXu2v7fpd/8RBTWW5aSWZWkVJ1oD28Z8tW3L8PIFHv564bn//YnMFAC+dm+CE76r3dfDNvdRTpIWJejXUzUc7xd1Hbwz2i76t90GYZjmiUPqlrqWd/Rzi1q58S6qHt4y0XKL7zhvT2q7oYj5mjL9OWJcooFWt8CRt8UVL0Q6763pR1mJUwi7zf/s/nuLlyq/CkiIMR/PgsJZKT4TioiI+k1E1N6fuuWXoehXNr9u+P3G2zGNV6wCwGRYInMTAcZ3TH5jTRzvMJ4DQERUII89hgHPw18luQ2bk2tn8XJ0ZUJ9bOo/lVKrsHbpgywAiIgK5Pxb7zvMgdqj8bVMJDBq0lFxEgZAMHXl5wY9v/JZgFcBEBEVysaR2jtcC/b87P57i9eRhu5fHPcjuPitYwALACKiwjjjK39cJCJvaHwtEwmMuiICoF4B9NQJ3L/CZcu+MfkPFgBERAWxtTKyWivZU6lsnP/N7r9dPMOBOgD8yuS/Ainjfzd+mQUAEVEBHLPijr/1PPfvAaDmR8+VsD6BUQ8EqDac+Ce4GiuX3904ggUAEVHOHbPqjr8fGHC/BhEVhoJ62OODpSzC7r/NuOo4IOFk8K16oPTx6WMycyMgIiLqzJGrf7vvoAov9lznLUqJAwDD1ej58dYnMB4k6F5QB4La1D9Feedh5ZKd04exACAiyomjrrxrvifBwai5h3kOznJcfapSanFjGt8y5qc4Q7vlovvXIaQ62vjKL3H50q+2Gur93Tf/MCOi7ffTjjOW8Rse83ZNpXbPcsN4pqz/OWJcL3n4GYAMzM90s7b/HHHeQU4DgAeUW39953iAih/ancA6imc4rjBHEwRoSv4yIm757YBq+RuYcQ5AHpI/9YbJv90wLtKkMfn3tNlZBaHgqeFqDJGKzeriqToK2X3JHwTqXKxZ8ki74YU+CZDdP6WlcImJay9VQSh4eNs4Ai12J7CO4hmOK0qBXxsDwt0f7yjId3D58q/N9i1N5wDkpftnorNH0bp/Lj17WL9W4k50bV4fq4V4fEc1V2f+267vxUl9HAhqjfE2aFV671xxeRLgHIrW/TOB2SMviYlFVv+JAKO1ENvG69hZCTr//g62YxYvH92/lc2lX4se8ztJUJOSOgerl26b61u9p4ajSwXifkx1/G+k3QmR8+sef3e9xsvH/EzF+9jVfPzuJkdpAfyJ6/xDPfN7rUxgBRVLceLXpu7zPxlPIB/A6uW3msT2dtVSviY0B3+ANs+ts3iWb9c4XnHml9rcctKpFW1Nxcn+98w0XkpHxnrVkPwnKZE1csUbvmwawgGY/NvHY7mcNO6oe4tHycvNmrItgdGc2hYn05L/xHv7Y71V/Usn8Qt9FUA/2Z5I0iraKHm2J5Lcd2oFxu6/t3gt+dUZnT8gt8kAluGa5WHL72nD+CRA2xOJ7QmWkle0NcUDVPawfk3ZlMCoe/Xx5hP+AIiWB8QpnY4VSyttvqstL1pA2Xg0ZN7ZnkhsT7DUPdsTie2f/VP3iremTONJ079QG4vu8d9IqYdE8DdYO/cZ/614UEog/a0AbE8k7NTyq2hrikvPHkXr/jN/Yx1biAC10aab/AAAFB7RyvlrfHnZ092G9iCiAeXOun3DYEx0yWP33y4eF1/SbE8kthdtlDz715RpvImBOoju7S/TbuKk8IjW4Um4fPlThptuyRGNjk4a6BfbEwk7tfwq2ppi8WSPonX/3D/OIqgBlZGZyV/kfh3g1bj8b5/sdROOAma9P2RanSR1j91/b/EoebYnEn4MmF+Z6P7r49Fn/tMo4E7tqlfjy8u7PuzfyBOFMKunAOblj56dWvYUbU2xU7MHu//e4llNNFDdFR36n0YpdV1YH1yOq04fj2tzjhLd9giA7Z0kdY/df7t4hgMpcUXr/rn07JFKceLXIOM72iR/5+rwWevPiDP5A4AnUDqrRwBM5OWPnsVT9uRmTbFTyxx2/+3iWbj42p3lDwACXyucj8vO/lISm/YAtNiq/d0/dyLJy00CM45nOM4wHiWvaGuKHwPaI5Y1ENQnPuuXmcWJUht1oN+IK99wS5dTnJMHaL/odwTOyx89i6fssX5NsVPLLXb/vcXriejoRL/pN/aZoAS3h6GcjSvfEMvJfu14oqWqpuX/vHT/3IUkz/oEZhzPcJxxPK4+WxRtTXHp2WPmeyFAvQr4lWmvTg0UpZy1oX/wB3HV0S2PzsfJA1Qt6Y3kgfV/9Mbx4t0uJc/2RJLrTq3g2P23i9eFMIgO90ubW+8INmtx34Urlv2gm/Dd8ABperJA0bp/JjpQiIGnAAAgAElEQVR7WF8UGcfjCZtZk5s1xaOj9tFhdLi/1Ul+iIoTpZzvh379Xbhq+dZ+Tm1GAUDdsz2R2F60UfdsTySZ6tSoI+z+24zTGqhXojv6tR81osX9INYu+4ph2Fh5AnT8CEHbEwk7tfwq2ppi8WQP69dUSgmWppk8wc9vfYJfw8D/DiX8F1y+vOdb+nbLQxhW4U1MJ61ZFIjticT2BEvdsz2R2H7jH0pepteU7O74Z4ungAfgeO8P1iy50WyryfEE2JVEYNsTCTu1/CramuLSs0fRun+esIno5D6/0vYz/imCijhYGY6OfhZfe7sVH717omUEYKKzCbv/dvG4+JKWl0TCjwHzy441JdEhfr+K6Wf1t4inAXw3DORDuGr5E2Zb6w8vlHCklNLGbU8k7NTyq2hrisWTPdj9t4uXATqMTurzDRt4hZtDqA/jsrPvSnZi3fGg9XBanSR1j91/b/EoebYnEn4MmF+xrikRSFCPEn+LB/W0jKfk5lDp87DmjbcbTSQlHqBGoiVu5yOB8vJHz04te4q2pnLVqWUcu//e4vVMBAjr0a165/psv5GSX4YhPokrlt+c3OTi44VhsAMigJq9AEirk6TusftvF89wICWuaN0/l549ZrxnooHAjxJ/Q9Kf8z0T+ACuD+BcirXLEntwTxI8wNkeFQBpT6V7efmjZ/GUPblZU1nt1AqM3X+7eMYRgTCc6PT9GSfzGXhGw7laS3g5Ll/+TKffbANPS33TXL9Z2ztJSp71Ccw4nuE4w3iUvKKtKX4MmJTJhO9Hl+4ZHNpv/U6o34vG2jA4+Gv9eGBPkrzQK2+E6LTnkbi8/NHzhM3ssX5NWd+pUbcK3f3rMEr0OoxO3tO7O/wu9nubFPR3UHb/f//Ss3/X6TfbyntOUN44El2n6LQaYHv3z12IPXJTFBnH4+qzRdHWFJfeNKKjE/YmE73u+HB+K8NKq59oR30j3BReh2veEEtQmygAOPKiX+xQ5Xl7thqQlwLAZH42z62zeJZv1zheceZneyLJTyeZkzUV43btf88MBlVGIHNcorc73qwBt0PkJ1o514Rqw4+x5v2zPckn8zwAEMF2BcwoAIqWSCh5hdtRG8aj5OVmTfHoaLOgBohZ8m9J4QEAP9Za/TTcd58bMXRSD8GyJXoMkA53pDyPzLA9kdhetFH3bE8ktneSlLz+rykB6pVO9nsCkQcB9UvtqJ+HvvMzfHnpZsPp5M7EEQC9bfoXbE8k7NTyq2hrisWTPaxfU5YXbX1XryA6ha0NhV1KcDeg1omSdX4ot2T1kr0keACgQ73RtfhugFljeyKxPcFS9/KSSPgxYH7FtqZ0CATV3eMET0LhPgX1B3GcuyFyd33ve+7D0FD+L3PrkgcAoVJPl7QGHLejb7Y9kbBTy6+irSkuPXuw++8tXmzq41P/qR314WDVskv6PIPMiy790/rJxnePiS557P7bxePis4XtiYQfA+bXnG9ZUAe0H40T/WCw196r+jGvvHEAINThY9DJHCWxPZGwU8uvoq0pXkNuD3b/7eLFQZq7f/H+uUhn7scpOgLgOn+aPJEi7k6Susfuv7d4lDzbEwk/BsyhiRP/ou5fvhesXfrTtKeUVQ4AeOFz/wSd3v2A8/JHz8Pc2VO0NcUjWfZg999FPB0AQXUyYEUp7yOGYakFBwDWDx1aFwm3p9VJUvJyk8CM4xkOpMQVrfvn0ktQbWzqPzXUxbU1Sx5JcTaZN3X/fx3qp9KcyFzy8kfPRJc9uVlTKXWS1D12/w38KiYf2SuCx4JS+AXDsNRGYwHwuMlTAZnA8sv6BGYcz3CcYTxKXtHWFD8G7JBowN994l8I9c9YsbyS4oxyYXcBAPwp648FzssffVon/1H3rF9TlneS1L1CdP8Nh/5FyzXhmmXXGYalWewuAEQenusRirYnWEpebooi43hcfbYo2pri0pvg1wDtT/5rZ13L+9OcTp5MFQAh5I9J3QvAJtb/0RvHS2e71D3bE4ntnSQlz7ruXzTgN574h4/xXv7x8Sb/Q4l7/2yPVMxLVU3Js74oMo7H4ilrcrOmeMJmpDo69Z9Ky23+ZWdfmeJscmfqCMADQ6/ZIFoPpzkZW9ieSGy/8Q8lz/ZEYucd5CgOfVtTfg1TTanA16XSewDFpRAjp/EfoqXliYC5qaoN41HyirammOjsYf2asrxo64tph/5FnIvqK866N8UZ5VJTAaBFHpzrRECKWJ9ImMAKz/ZEwo8B86vnNdVw6B/AH+r1536mtxlRK00FQAh1P3TzeQC2JxIe5s6voq0pJjp7sPvvLV5P6hU0nI9W1x7eiquO9mf7FupO8xEALfcW4UqAfmH33y4eE5gtbE8k/Bgwv1q+ZToAgkrjmC/6l579u/7NqlimfQTg/a6bjwBsTyQ8zJ1fRVtTvIbcHuz+28XrlgDVsYZ/yr312sGf7zoczampAHhw6H89KtC7Jk8EZKdmj6J1/1x59rA9kfBjwJyojQOYaEAFNXHKb+Gh/2Q5018IQ/ljEicC5uWPnokuewq3pngkyxrs/g3jBXUgrDV8Xf6tvurMewzDUZdmFAACuQc6YALLoNwkMON4hgMpcUXr/rn0YiQaqO8+9K+03FHfJBekOKPCmHkEQJzfpnUpYF7+6Jnosic3ayqlTpKSl9vuvzra+N0jUiq/Bdcs5/XofeDNeEXL7RKa/e65E8ke6xOYcTzDcYbxKHlFW1M8YdNAfRyNt6DXjjrXX3HmwynOqFBmHAG4H7ffDcg4xM4CLDd/9Mbx4t0udc/6NWX558iUvEx1/6EPBNWpfyqtvuWvXPY1w1AUgxkFAIaGtNbyIOY4CsBOLb9yUxQZx+Pqs0XR1lRh94+igVrD3f60PF5V896T3oSKaWYBACAU3GXrEQAT1v/RG8dLZ7vUvbwkkkzeQY6MWNH9N3/uH4TivBVrThsxDEUxaVkABAq3Imh/+aXtCZaSZ31RZByPxVPW5GZNFfWEzWmf+4uoLwZrl92S4owKq00BoP4HAFo9GTAvbE8ktt/4h5JneyKx5w5yFLfE1lRQb/rcH5Bf1Z8Jh8xnRnFqWQA88olTntQimxAGM75mfVVtGI+Sl5tOzTie4TjDeNQ969eU5UVbInQI1Bs+9xdsdtzBN/KSv/S0LAAAQER+N/3JgEVjfSJhAis82xMJPwbMr87WlEx/xG8QanlTZcXpT8c+MTLWtgAI4Nw6/QiA9VW1cTzDgZS4oq0pJjp7sPvvLV5HqqOYus9/NJfPBmvP+VkCW6IOtC0AwrB2AwBk+WqAfmD33y4eE5gtbE8k/Bgwv0QQnfSnG04qF9xYX302n/JngbYFwINDr79TRHZMHgWwPZHwMHd+FW1N8Q5y9mD33y6eoekn/WnZUIN+C6C4ei3QtgAAlISCO1udCEjJKFr3zz2APWxPJPwYMINmnvRXCz05G2uWb0lvUtRolgIACCS8uZMHA+Xlj56JLnsKt6Z4JMsa7P5bB5NK00l/0ND/EqxcfpvZVqgfZi8AgB8DgIT1/syG5pSbBGYcz3AgJa5o3T+XXg9qzSf9QXCFv2b5FanNh1qatQB4+FOn/U4Em+P8GCAvf/RMdNmTmzWVUidJyctF918bg4SNd5KVX9X22ef9Zlugfpq1AACAQMJbogJg9reeOxF7WJ/AjOMZjjOMR8kr2priCZvT1CtAUNv9by1P15R/NoZO4slkFpq7AIC6HhDM9XTAOOXmj944Xrzbpe5Zv6Ys/xyZkmdt9x/UAb+ye5xIVSvnbKx60yazLVC/zVkAeCGuhagA4SwPB2Knljm5KYqM43H12aJoa6oQ+0cdND/eFxCt3H/01yy7Pa0p0dzmLADWD712e6j172crANJg/R+9cbx0tkvJsz2RZOIOctSVvnb/ooHKruZxoi71Vy/9P2bRKS1zFgAAECi5sd3HAOzU8sv6osg4Hk/YzJrcrKm8n7ApMpH8myZ2bW3N0o+kNCPqgFEBIA6+BaD5do4ZkJdEwgSWX7YnEj7yN796f88EqO7C5O3io3Fyd608/mbe6S8bjAqAB84/9R6t5U8Imu8HYHuCpeTlplMzjmc4zjAedc/6NWV50daz6iianhir5Sl3sPw6XPzWsf5MgHplVAAAQCi4LvoYoJhXcxSt+2cCs4ftiYQfA+ZX23eiNobG88JEYZf25PTxi87c0JeJUSyMC4BAy7cBABN3BWSnRqas79SM4xmOM47H1Zc0dv+9xWupPt58rT/Eh3hv9Fcuv7uHqJQC4wLgwaFTf6W1bIyqPu64Wila988EZg/bEwk/BswJvxr9r0Go8YHa6rOuT2lG1APjAgAANNSPAEACs5MB2amRKdsTie2dJHWP3X+7eNMEtaj7b6C1+wX/snMuN4tItumoAAgkjK7rDPhwoG4Vrftn/rKHNYmkbTxe7WKt0I8+928i/6d+2ZKPpzIfikVHBcADnzrt12GoH4UOpy79aMf2P3omuuwp3JrieSyZk8vuPwyiy/0aKfWT6kb5B7NoZKuOCgAACLT6XvQf2bonQJbkJoEZxzMcSIkrWvfPjwHnEAZAdaT5NS23VZ1wKa5Z3r8HxFAiOi4A6vCugoLM9jFA0f7omejskZs1lVInScnLTPevW3T+gj9WxT0dK5ZXzKKRzTouAB4d+l8PhqHcDQhsez5AkVifwIzjGY4zjEfJK9qaKuQJmzqYeYtfwZMK6mSsXbottXlRrDouAAAg0Prr0X/U5hjZXm7+6I3jxbtdSp7tiSStTpKSl2r3r8NWyX+Ldp1TKmuWPWUWibKgqwIgBL4KhbFWJwNyF2KP3BRFxvF4wqYtCrem8nIkS4cTh/13z1QpNRw66nX1lUvvT29ilISuCoCHh04bCUK5DkCilwRa/0dvHC+d7VLybE8kVt1BjmIVe/c/mfxFN7484qvwVH/Vsjs7niBZr6sCAABCpa8EMFEARCuMZ9Rmj/VFkXE8nrCZNblZU3k4YbNV8hc1DrhLg5XLb0thRtQHXRcAD3zytJ9rwUMAAL/7cwH6xfZEwgSWX7YnEj7yN7+M3jMdQioj05I/KuKos6qrl/wssclR6rouAADA1/pqAEBQ72AnwkSXNbnp1IzjGY4zjEfds35NWV60zWnqUr+mE/587bpvqq1a+tN4NkK26qkA8GTwChEZASQXNwYqWvfPBGYP2xMJb6yTQzoAqqOQps/8xdeO8+b6yiXfT21e1Dc9FQDrh04aDUP5lgBAUJ1rOBNdjlnfqRnHMxxnHI+rzxZF6/5njTeR/Gd0/qr0d/VVS68xmwllXU8FAABUXfdiiIQQAcL8PySoaN0/E5g9rEwkTfEMx/FjwHSFbQ77O86b66vO+nZq86K+67kAePSTr3lIa/wcwKwnAzLRUV4SSVqdJCUv991/UAdquxrGCSCoaVU+h51/8fRcAABATeQCANFZpAU4CjCXonX/zF/2YPffW7xcC2pAfdojfQUVcUvL6qvPuDadSVGaYikAHh469RdadHSjiBZHAWz/o2eis0deEknh7iBXIJns/v0qUB9vHqelIq67rLbyzOvMZkB5E0sBAAB17V0IgEcBDOUmgRnHMxxIiWP33y5eThepX4n+10gwLs7gktrKJT9OZ1Jkg9gKgIc+ffJ/C+QBAFG1OXl3wJz80TPR2SM3ayqlTpKSZ033Xx+b2B83GRbg9bVVr7/BbOuUV7EVAABQ0/JFANEqTPAZAUVhfQIzjmc4zjAeJa9oayp/J2wKUBuduR/WsiWQ8G+qq5fdlM68yCYq3nCiDv38DX90oP4CAGRwkdEmrP+jN45n+XaN4xVnfrYnEms6ybbxDMflZU3FuN3E3jOZSP46aB6g5anQdV7Dp/rRpFiPAABKfI1/m/pnBp4RkHXcUfcWj7pXuDWVhSNZoqNr/Kcnf4UHRavjmfypUcwFAPDgp177da31fQCiy07m+Kux/o/eOF4626Xk2Z5I0ur+KXkdvWc6ACojgITTg/zO9dQJ1bXLHo9/hpRlsRcAAFAP9Oendob++OyDKXHWF0XG8XjCZtbkZk3ZfsJmUJ95d79oQzdVymMnjF68dHPMW6QcSKQAeOizr/tmqPEbANFtJ3U4x3fEw/ZEwgSWX7YnEj7yN7+kXp15gx8AEP29imw4FRe/tcUXiRIqAADAF/kwlIr2E/VKyzFMdPbITadmHM9wnGE8Sl7Run+joq3e4hp/AMpxrqrsvf5srHk/T8SitmK+CqDZiz9z/fWu45wKACjNA7xy09fT2FkXrfvPS4LNw/ysTiQdxTMcl4P3LJntmsabZaAIUBsDQn/6qFCLfLS2+uxLDadDBZbYEQAA8Ev4MATR6ah+pWnls1PLHut31MbxDMcZx+Pqs0Uhkr8OgcquFslfxkLlnM3kT6YSLQAe/vhp9wWQr069kJETAtn9U1rY/beLZzgw78I2Z/prbIZyTq6vXPL9dCZGWZRoAQAA9bL3UQG2AIgW78xDVm0x0WVPXhJJWp0kJS+z3b9fmzjTf9p2RR7UcF5RWbn0NsOpEAHoQwHw6HknD9e0/vTUC/VKLvaGRev+s/+O5Qe7/97iZc/E5/31FkdQRf3SC51X1NYseaT/86KsS/QkwEYv/sxP7nIdHCUA4JaA8vxZx+dmp2T5zjCN+dk8t87iZbST7Dqe4bgcvG/WvGeigerojEupBYACvj5eOeiduOpo33AaRE28fm0odPFeV/BrAB5CHwh8wCv1a/OpyMOOsLN4hgMpcUz+7eJlaJGGQZT8Z/x04usQH6lddvaqNKZF+ZH4RwCTHvzEa9cFWq6cesGvRNVtC3nZKVHybE8k1t9BjrqWaPdfr7a7s9/O0Bl4PZM/xaFvBQAAjO7c9REt+FP0L2l7g6AisT6BGcczHGccj5kuaVxTvW03ESJR19/i5j4A7g+BY2orTr+x39OifOprAfDUiuWVWl3+GWrib1YH0QODGuRmp8QEZg3bE0lan/1T8jp6z3QYXeIXtvhIX/DT8Up4XG312Q/FO0Mqsr6dBNjoRUM/+U/XxZumXhhYCDgugOIVACajcvM7MY6Xk/lZXgDwhM1+bNdwnF9tfZY/IFqcL1ZXn3U+oFjZUaz6egRgksyr/aMInph6oVYBIPlJJLy0LnNyk0hiPvmPkiaQ6q42yV+NiCdvrq5e8nEmf0pCKgXAA/965q5KNXynUpi4tiXk+QA9sr4oMo7HEzazJjdrqt9Fmw6AynDrQ/5K7g1dvKxyydnfNNwcUcdSKQAA4E8XvO6nftBwVUDozzgfoBXbEwkTWH5Zm0im4qUzP+qCXwGqI2h1JZQSXDM+PvDy2qVLH0xhZlQgfbsPQCs1PPMhR/Z/taPUoSIA/Gp0LoCT6rRyKzedmnE8w3GG8Sh5ue/+RQO10aj7nz5OMK6V+kB19dKrDTdD1JNUTgJs9PwLrv/LgcC5Q4CF0SsKGFwIqNYHJ8xOmitW95+XBJuH+RWt+8/De5bMdlu8GNajW/o2RJkap/AoSjhn/EvLfmu4CaKepfYRwKSHP37afVUtH9r9igD15j+Shq9QwqzfURvHMxxnHI+rzxbZS/4T+7Ra8139Gsb9YDycdySTP/Vb6kcAJr1w6Cffdh0sn3rB8YCBBU1jYu3UjGPFt81Etmscj/PrLV58yYTdf7t4huOM41lQAOgg6vqnP74XgGiMC3BeZfWyNYahiWKV+hGASbvgv12LrJ96QQdNd8Nip5Y9TCSUlvSTvwD++MSJfjOTvxZ5AAM4gcmf0mRNAbBh6PTxuuMugWDn1ItBPfrcLCXs/tvFMxxIXWP331u8VOkguqOfX231VVHKuaoyvOsIHvKntFnzEcCk5w/deEbJCb+roNzJ16Q0D/DKc34vT/5rF8/e+dk8tyhe2p3kXPFYALSOl9IJm36l3X38AZFt2lHvqqxY9j3DkESJsuYIwKSHh17zg0CrLza9WB+PHo1poTzsCDuLZzjOMB51j8m/XbwUVt/kTX3aJn/1M1HqJUz+ZBPrjgBMeuHQ9f/lOs6ypj/mwYVt7xHA7r9dvOzPz+a5JbNd03gsAFrH6+cJmwLUK9G9/Ft+WVU08OnKqiUX83a+ZBvrjgBM8nDQm0It65perI5FT8zKGOt3hMbxDMcZx+P+MGlcU71td1ZhAIzvAvw2dzAV/FaVysdUVi39EpM/2cjaAmD90KH1er1+hgae3P2qTFxS03z7TNu7f0qe7Ykkre6fEiAT+6HqLkDCme+FqJoo+fTYhvCY0Ytf/4d0Jkk0N2s/Aph0yOdufEEpDH/lKDx76kXlAIOLABVN3/YCwOxkOMNtmg3LT6dmHM9wnHG8fBQAPGEz5u0GdaA23vTVpvdC1H3iydvGL1l2p9lWiNJjfQEAAIcMXXd0WTn/o4A9pl5ULjC4AGL4I9ic/DvarnE8zq/7WEz+rePlZE11s10dtj0ZeeL98AF1+dj4cz+Cq45u8Xg/IvtkogAAgIOHfnziPCXXAWr+1IvKgZQXAM7cn2TkoQAo3I7aOJ7hOON4LABaxzM6Jc4wluE443gJ/k78atvHlQsE0PijVvK2yqqz7zCLTmQHa88BmO6xoVN/URP3DRBM3RlIpp6sNfORmo3ykPypP5j828Ur4CINfWB8pG3yh5KqVrhwTJ4+gsmfsigzRwAmPe+TP3rLgOd8TUG5u3dJKnpugOO2/J68FACF+pzWOJ7hOON4LABax8vB+S6m253lcH9DsFtRGngPT/KjLMtcAQAAz/vUde8bcJ3VmH4EY2DBjPsEFCn5R/E4v97iGRzmZvLvMZ7hOON4cf1eBPCrkHqba/qjIVu1qPPHVy+5ynB6RNZq3TJbbufN37hz8ave5Luu+ms0FjGhD7hedJUAtWX9jto4nuE443gFPMxtqb4n/7AGVEch7bt+UZD/UF75jLGVZ/7ScHpEVsvkEYBJhwz96L0l5axufG4AAGDi2QHs/nuNZzjOOF5O5hfrCZuG49j9t4nX4+9FguiyvokbjLUcp/CoOM57xy456wbDaRFlQqYLAAD486Hr3lZSzlUASk1f8AYgpUGjGCwA2sWLM1ZOfnc8/N9jPMNxRrF6+Z3o6OS+oD7LOBnVwCXj4wf9Gy/tozzKfAEAAIcM3fD6MsJvQzVcIghAHA8oz5+6YVArTP7t4hmOM46Xk/nFmsBMYzH5t47Xze8l+py/1aN6G8aJQH4UKnygumLZo4bTIcqcXBQAQHSfgAHgWqWwGGj4Y1YOMDC//RUCLADaxDMcZxTL3rlF8dj9t46X/fdt9xCJ7tnf5ml9u/cX+l6I84HRlUt/bjgNoszKzdlyjw2d+otKrX4aRHY0fUE0UB3t6XHCedgRdhbPcJxhPOoek3+7eB2svqAGjM/yqN4o4E5R+mOje/zhCCZ/KorcHAGY9LzP/uTwUqh/pJQ6cMYXS4NAaWDqn+z+28UzHGccz6BTM45lOM44Hrv/1vGyv6YQ1KNL+mSWJ4gKfFFypSfOJ3euXLLTcPNEuZC7AgAADh66bv+SVj9wHPWyGV90d58XEGcBYPWOsKN4huOM4+VkfhYXAHzPpgl8wK9EN/SZ3Y8F3kdGV5yx3nDTRLmSywIAAI668q7S8IbN/+4q9daZX1WQ8jzALc380jSZ3xl2HM9wnHG8+ObH5N9rPMNxWV1TE4l/suNvN0xEfiuizhtbtfSnhpskyqXcFgCTnveJ6z5S9tQFgGq6RaBAAG8gumfALHKRwIzjGY4zjpeT+RWoAMjkezYt8bfdruAhDfW5sZVL/q/h5ohyLfcFAAAc9LEfnjZQdv5TKWdPYNqOVbnRLYRb3D0wkzvDnuIZjjOO1//5Mfm3i2c4LktrqkXib7PdjRrqwrGn/MtwzfI5PxcgKopCFAAAcMhnr3uJp50fKODgmTtXBZTnAW656dVcJDDjeIbjjOPlZH4sAHqIZTjOOJ5EowM/uo6/zcl9DZf+DYeCS8ZVeDFWLJ/lEgCiYipMAQAAh3zxp3uosfpXXVctbTnAKUWFgHLyk8CM4xmOM45n7/yY/NvFs/c9AwRSq0b37Jc5Hv8tsgtKXYkavrhr7dJtZrMgKp5CFQCTDv7UdW8vO2oVgEUtB3iDEG+g5ZemszqBmW2yYImEBUD7eBae7yISndHv1+YeLXpMw/mKckqf23XJ6VvNZkBUXIUsAADgwE/c+IJ5bvAdpXDE9K+JILpzYHn+rE8WtD6BGcczHGccL/vzY/LvNZ7huHZf0EF0mD/wJ8bNElD0GOB8RZj4iTpS2AIAAA4d+k65oudd5Dnu/0bDXRGbdl5e882DGtmcwEzj2Ty3KJ7hOON47P5bx7PkfJfQjx7S03ANf9vfiWAUwFeB+Z8ZWfHa7YZTI6IJhS4AJj33E9efPejgy3CwT8sdl3Kiuwg23DfA+gRmHM9wnHG8nMyv2wTWZawoXnGSf1M8keh2vX7rz/dn/F4EOzTU2lJ54cU7Ljx52HBaRDQNC4AJB3zoh8+aN99d47h4A6TN78VxJ04SdO1PYMbx4oxVnOTf2XZN4xWsANBBlPQbHsk7c5sNwbR6Qly5YsB112696MxdhtMhojZYAExz0Md+eFppwL1cCQ5qN0bcUnQDoVkeMwzkaEdtHC8n84txu0z+LSIF9eikvrlv1QuJfjP3SuisHd1rj69g6KTun+pFRE1YALSw34dvWLBgXnCx66p3QTDjOcJTO7nSwMT5Aa1/jdnfWZvHs3luUTx2/63j9el902HU6QfV2cc1fAcUfu6LWjF+6VnXG26eiDrAAmAWB53//VeUvNLVCuovJ1+bueNSQKk8oxDI7I6663g5mV8KBUBuk79E3T7CenRWf7txzeoQ+UEA57NjK86613DTRNQFFgBzOHRofXlMP/rxkuN+EIJF7XdeCigPAF4ZQAdPGjScRx4SrM1zS2a7pvFyVgBMJv3Qn31c80aeCAVfhSdXjF68dLAKz90AAAiLSURBVLPhJomoBywADD3v49fup7zSpx3Bu6DgtR+pIN7MIwKtpL6jji1eTuaXgwIgtfcsnDzEP/sNe6ZtVgvwayj36pEnqt/gffqJ+osFQIcOHPrxYQOhrFIKJ7YbE+3Q1cTTBmc5R8Bwm7lJsEaxDLdpNqxQyT+KZzgujvdM9MR9+WuQNvfln7ldACLbBPhPUVi769KlDxp9IxHFjgVAl55z/nVnlh25WCnn+Y2vt9yhuxNHBJTbMM5MkZJ/FM9wnHE8FgAzY/Xwnk0m/WD35/odvBf3ilJfGdnlXY2rTh83/DYiSggLgB4cOrS+PBY89j5XyYeVcg4A5tihO6WoEHC84iVY43hxxmLybx2vw/dsKum3vnRvjmibReO/1Lzy1TsveN3dhlMkoj5gARCDQ4fWl0f9R9/tKeejcPCcucYL3KgQcEuz3kuAyb/XeCwAWsczOGFTNOBPnsHf/vB+m0h1KOcWLerrI7sO+BauOrr12YBElCoWADGKCoHH3+068lGl2hcCTftf14vOFWi4zfDucTlJsMbxDMcZxWLybx1vlpE6nDp7X0LDz/Sb/3mvKHwz8J2vjq06c5PhlIgoJSwAEnDo0PryiP/oP5dc51wFPHf611vug5UTXULolaeeQJiLS+uM4xmOM47HAqB1vIaRgomEXwfCsCmK8drT8hQc9e3ALX1l9KLX3284DSKyAAuAJA0NOc+pHX6G53ofcBznVQCU0Q7d9SBOKTp5cI53yPoEaxzPcJxxPJPD3HFv0zReism/ocuHnvngnalxs1IbBfo6cdW3hi866+eAMp0CEVmEBUCf/Nn5P3h5STnnOsASKNX6+cINpvaojhd9PNCmGDA7HG42xyIl/2S2axqvj/PTYZTswwASBnONnthuy0NUGwT6eiZ9ovxgAdBnfzZ0/YFeoD/oAG9VSu3TakzbPeu0YsD6BGscz3Cccbz4Emzmkn9Dwo8u05PO4jV/RPAkHOfawJVv7rrwrFvNIhBRVrAASMlRV95V2vTExuWewjsU1KuV2n2TAKN9tXIgrgc4ZcCd8byiJlbfQc7i5N/Zdk3jxTy/Ngm/y3giwL3Q+sbQ8/575KIzbjebBRFlEQsACxxw/g3PcXTt7SXPeTOg/sLke5oTnQK80sQRAm/qJMJonNkcWAD0ul2TWD3OTXSU5HUYHdLXZk/GnWNuFQC/1kr9CNr7/s5LXve4UVAiyjwWAJY54KPXnlwqu+9wBKfCUXu0GzdrolNudFTA8SBOc0HQNp7B3Jj8e43XwfxEAAmis/N1EHX4076/6/mJPCBQN4YIrhtZtM/PMHSSWSVBRLnCAsBSR115V2nTk8+c7in1BiXyWii1ePJrnSdiZ6IgKAGOEx0paDlujngsAHqM12agDqMz8nUQHdLXYdTtxzQ30bIFSm4TpW4ShR8Of2nJI4bfTkQ5xgIgAw4dWl/eWXv8DM8N3+AIThGlFpl836xJQrnRxwWOC1Eu4Mx+HgHQwbXhJnMrYvIXPdHRh4BM/G/apXjxPKRHtkA5t4WCm5Xr/XTHha+712yWRFQkLACy5pzvuP/fgeVXePOcJY7CKUo5L0aL97GrBOY4UWEw9RGC29FNibrebizxbCgAJpK86CixTyZ40VFnbxSv8yJLRLYp5d4dKvUrx8UN27/w+tt5mR4RzYUFQMbtd96PDvEcLHEVTnEUXglgPhBzInYcCJzmAsFxWj7HwOr7EvS6XZlM8AJICNGNyV63PWwf688hytei7wPwG1HuOrjurezwiagbLADyZOLogDNPnehodZxycYJSzsJ2w7u6Nnw65UT/cxwI1MS/1UShgN3/7ma7ZsN6KAAk+p80/0+0BqAbkn3r5N6Xn0M5WyByRyi4VTt63YL53m0bhvgoXSLqHQuAPBu6yfuz+tgJAP7GgRzvKBwOpfac/HIsBUDjuFm/OlkcICoUgBbFwe7/lsZ/q8avSdOGpCkxT5vBZFIHJrr1hoTf9mdI6aMEDR+QRwXyRxHcK1qt0wPer4a/+PodhiGIiDrCAqBg9j/vewc7cI9TrjpaaRzpKByNWU4qTO+z/5gTcVrbbf3iFoHco0TdHwjWK0/uGZzn3s3Onoj6iQVA0Z3zHfeAQ+cdjpo60lE4HJC/VMCLlFIHAFA2FwBWJ3+R7aLwhGh5HA7+FIrzILzgHm8g/P2WoeWjZjMiIkoOCwBqaa9//ekeAzL+Ukepv1Ku+nOl8AIlcrAo9VwlaDqvoKDdfx1KbRAtj0PwWKjkUUepR6SkH9LBwgd2XHjysNlWiYjSwQKAOvasj157gBvoF7sDpYOh5DkI5UC46kAlOADA/kphbwAzbiyQRgHQ6TZFMAyFLRBshcgzADZpx9kAYBM0nlaD3tMq9DdsvuDMTWaRiYjsxAKAEiDqWR//7v4Ki/bzfH9/Kct+0LKfiCx2ldpTRO+poBYrpRYDMl8mLl1UggERGYxiqEFRKAOAUmo+INHtC7WqipK6iEBBNETtPpzuqFGBhACgoOoAxrXWw1BqBKJGBLJLA8NKMALP3SkhdsDVw45X3lnfVRleqPxNT61YXunrr4qIiIiIiIiIiIiIiIiIiIiIiIiIiIiIiIiIiIiIiIiIiIiIiIiIiIiIiIiIiIiIiIiIiIiIiIiIiIiIiIiIiIiIiIiIiIiIiIiIiIiIiIiIiIiIiIiIiIiIiIiIiIiIiIiIiIiIiIiIiIiIiIiIiIiIiIiIiIiIiIiIiIiIiIiIiIiIiIiIiIiIiIiIiIiIiIiIiIiIiIiIiIiIiIiIiIiIiIiIiIiIiIiIiIiIiIiIiIiIiIiIiIiIiIiIiIiIiIiIiIiIiIiIiIiIiIiIiIiIiIiIiIiIiIiIiIiIiIiIiIiIiIiIiIiIiIiIiIiIiIiIiIiIiIiIiIiIiIiIiIgo4/4fEJ2Fux+M+rgAAAAASUVORK5CYII=;" vertex="1" parent="eBhDLRAJo3qDtjfBZI72-25">
          <mxGeometry x="232.48968382687934" y="425.03125000000017" width="38.81176747487949" height="38.81176747487949" as="geometry" />
        </mxCell>
        <mxCell id="eBhDLRAJo3qDtjfBZI72-9" value="&lt;font style=&quot;font-size: 35px;&quot;&gt;Datanode&lt;/font&gt;" style="rounded=0;whiteSpace=wrap;html=1;gradientColor=none;fillColor=none;" vertex="1" parent="eBhDLRAJo3qDtjfBZI72-25">
          <mxGeometry x="642.0824601366743" y="418.75" width="362.91617312072907" height="139.5833333333334" as="geometry" />
        </mxCell>
        <mxCell id="eBhDLRAJo3qDtjfBZI72-10" value="" style="rounded=0;whiteSpace=wrap;html=1;fillColor=none;" vertex="1" parent="eBhDLRAJo3qDtjfBZI72-25">
          <mxGeometry x="642.0824601366743" y="418.75" width="54.437425968109345" height="52.34375000000002" as="geometry" />
        </mxCell>
        <mxCell id="eBhDLRAJo3qDtjfBZI72-11" value="" style="shape=image;verticalLabelPosition=bottom;labelBackgroundColor=default;verticalAlign=top;aspect=fixed;imageAspect=0;image=data:image/png,iVBORw0KGgoAAAANSUhEUgAAAgAAAAIACAYAAAD0eNT6AAAACXBIWXMAATr1AAE69QGXCHZXAAAAGXRFWHRTb2Z0d2FyZQB3d3cuaW5rc2NhcGUub3Jnm+48GgAAIABJREFUeJzt3XmYJFWVN/7vjYjMql7ZRPgxKMjoqMPIIgiioDDzIoKydDe0jjqOOi4zOq84boPiUi6DgkBvNAiM/nx9Z9yYUVFBwVEElaVBRbBBVlm76b2ruqpyiYh73j+iqjqzKrPqZmZExo2I7+d5fKSzbp24VXkrzjmRsQBERERERERERERERERERERERERERERERERERERERERERERERERERERERERERERERERERERERERERERERERERERERERERERERERERERERERERERERERERERERERERERERERERERERERERERERERERERERERERERERERERERERERERERERERERERERERERERERERERERERERERERERERERERERERERERERERERERERERERERERERERERERERERERERERERERERERERERERERERERERERERERERERERERERERERERERERERERERERERERERERERERERERERERERERERPFQaU+AiOZ28r/f/Z6FJfXl2caIiFEss1GAYTjjeK0G/vAdR3AfRJQSJ+0JEBERUf+xACDKgSx2/0SULhYAREREBcQCgCjj2P0TUTe8tCdARHPbPFKvb3d6y6TWFwpE1FcsAIgyYKTqB16b43VxJmzzWPEWE0TUf/wIgCjD4u7Wiag4WAAQUUfY/RPlAwsAooziZ/VE1AsWAEQUOxYTRPZjAUCUQWl1/6aH/4nIfiwAiCgVrCWI0sUCgChjbO/+mdeJsoEFABERUQGxACDKkLx0/zz8T5Q+FgBEREQFxAKAKCPY/RNRnFgAEBERFRALAKIcYfdPRKZYABARERUQCwCigmH3T0QACwCi3GCCJaJOsAAgohnY/RPlHwsAohzgI3+JqFMsAIioK+z+ibKNBQBRxvGRv0TUDRYARJQY1hJE9mIBQJRhtt/4h4jsxQKAiIiogFgAEGWU7d0/D/8T2Y0FABERUQGxACDKIHb/RNQrFgBEREQFxAKAKGPy0v3zIAFRulgAEBERFRALAKIcYvdPRHNhAUCUITy5jojiwgKAqKDY/RMVGwsAooxggiWiOLEAIKK22P0T5RcLAKIMCMUsd/KRv0RkigUAEfWE3T9RNrEAIMoJPvKXiDrBAoCIEsdigsg+LACIcsD2G/8QkX1YABARERUQCwCijLO9++dBAiI7eWlPgIjmJpWdpbbletwZNu7j+qwAiKzEIwBEGZaXRwMTUf+xACAiIiogFgBEGcXun4h6wQKAiIiogHgSIFEmqFvqWt6RVHStHIGKOWjc8YiIiIiIiIiIiIiIiIiIiIiIiIiIiIiIiIiIiIiIiIiIiIiIiIiIiIiIMos368yI13313n9aPIDL233d/MEwdj3w5Zq/O8xoDZ5y1d3/uGhQXTG1XcP4cT8wx5TJg3UEwLVvO8Lo5/+bK+9+z4IyvjxXPCMWrZXr/+FI7oOIUsKHAVHX0nraWx6SPxFR2lgA5EBa3T/ZI4vdPxGliwUAZUpeun/mQyJKGwuAjMvqZ/8UH3b/RNQNL+0JkJktI9X6SGnm62l1xP3udLdUwtqOami2zZjnFncC6+Ycgc2j9Zrn6DbxDLdruC3bf39EFA8WABkxEgTBgG4+YbpIO/7hSi0sGR6vir0osuD3Mlz1A6/Nz296xYGJtNYUEfUfPwKgXMlj8p89HhMsEXWHBUBGFan7p/5g909ULCwAqHCK1v0zDRNRKywAMigv3X/sl+DFHI9mYvdPlB8sAIhaKFr3z3xNVDwsAHKK3X+bcUx0ieNHE0TZwAIgY5jA7FG07p9LjyhfWAAUWF4SSVqX/lH3+BsmSh8LgAxhp5Y9Rev+WTwRZQcLAJoVu//etktEZCsWADnDTi2/8tL9c+UR2YEFAPWM3X9v2yUiSgMLgBxhp0bs/onIFAsA6gt2/0REdmEBkBO23/iHksfun4g6wQKAMicv3T8TIhGliQVADtje/TPR2YPdPxFNYgFAuVS07p8Jlog6xQIg44rW/TPRJY/dP1ExsACgwipaUcQTNomoEQuADGP332YcE13i2P0TZR8LAKJZFK0oYsImKg4WADmXl+7fFB/5aw/+honsxgIgo7hztUfRun8WT0T5wAKAcpNI+MhfIiJzLAAyiJ1a9hSt++fKI7IfCwCKVdG6f9ZYRJRVLAAyxvZL/yh5een+uaaI0sUCgPquaN0/8xwR2YgFQIbY3qkx0SWP3T8RxYUFAGUau38iou6wAMgZ2xMdr0xIHrt/IjLBAoAyq2jdP/MmEcWJBUCO2J7o2P3bg90/EbEAoFyzvSgypUPD7TLBEpEhFgA5YXuiS+vSP+oeu3+azfGX37PXy1asOyLteVD3WABQ4RWtKGIepl6duHb9QkjtxvmDzh3Hrb3rCycO3eSlPSfqHAuAHGD335/t0kzs/ovn+auvHwhQud5z1NEKKA84OC949sLfHbXitpemPTfqDAsAIgO5KYqM4zFj00yHDq0v7+886yeegxMmXxMArlJ/tWCgdNtxa9etPHRofTnFKVIHWABQE9sTCR/5S5SOE4du8vbet/I9z3VObPV1pVAuO865e+07fu9xa9e9or+zo26wAMg4Jjp7WF8UGcfjyX80zdCQo/dd+F3XwWmNL7d6a11H/UVJOTcdu+auCzA0xBxjMZ64kRF6fLgER838Qtx7V4NwaRQdUt3lCcyuhTM/SmA4zvQnSTDRiT/ioW54LWDbIKbj+r+myGaijt/3rm85jjq98dVNoz52VgIctOcABkrNeV4plAc9fOz4fU8/OVx7+t/e9r6jHu7rlMkIq7MMY6eWPWndHdD2uyaSvU5Y+9vVnqPOaXxty5iPDSM1jPshHthawabResv32nXk6JLSdx278s5l/ZovmWMBQImIe78fhnZ3/0x0lEfHrrrz3a6L9zW+tnXMx9PDtal/axFsHKnjoa0V1Hw9M4hSe5TLzneOXbPuS4C0OIxJaWEBkFGpXfrHTGcNdv+UpOMvv+eQQU9dCtmdtLeP+3hquNZyDbQ6GjA5TilxBjznw6+87Df/c+zq2xcnP3sywQKAUhP7R82Wd//Mh5QlrtT+XTlYMPnvnZUATzZ0/q3MdTTAdfHXJc+767A1v39e/DOmTvEkwIzQqnRTTfvvAgAtSoD+H0nTglS2O7Htm2sh/qHP27QmZwd+eAtK7tu7+maDtywMtdnAmLdLdjp21Z3vVo46afLfw9UAj++sGhe7436IP24Zx/6Lynj2oubbAjgKL9jD8e942ap1Z9157jG3xjpx6gj/RImIaMpRV961x/wQj7oKewPAaD3EI9sqMw7rz2XyI6U95nk4aM95cKYfb9YYGw+CN9917suvjWnq1CF+BEBERFM8X86fTP61UPCn7eadfyvDlQAPbBlDdfpHAg4WzPe8/3rZynXv7WW+1D0eASAiIgDAiy64Y59n7+U96kAWC4CHtlYw3nD/iV5uJuUohQP3GMDeC0oNAwEoJRW//qk733/c53uaPHWMRwCIiAgAsHghhhzIYgDYtMtvSv690iJ4YmcVz4zUm78gouaVyp89dtXtn41tY2SERwCIiAiv/MqvFjm1gaddpRbVQsEfN481HfqP81bSe80v4bl7DEJNy0C1QH/+jvcf80nzWVMveASAiIjgVwbf5Sq1CAA2jtQSvY/DjnEfD20dRxA2b2TAcz5x7Op1n0tuy9SIBQAREcGDvBMAxuohdlaCpq/F/iApibbz0NZx1IJpRUDJPf+Y1Xf8q+EmqQcsAIiICu4lK9e9quyqFwPA09M/o09QNdB4aOu0KwRE1KBXuuDY1b99R98mUlAsAIiICm6BK/8MRF359BP/kuj+G/mh4KGt46g0XSaonbKnrzjm8jteZ7h56gILACKiInv3XaWS654CAJvH/FSmEGjBw1vHMV5vLAKkXBbn2y9d/ZuXpzKpAsjMVQBnfuWe9y2a71wGmFWaqT36vMP7zH/7LYcZvQenXv37f1o0T13e63ZN9evBMN/9+8ONfv6T//3u9ywsqS8bbq5hu/1/wI3xWyHAD99xhNHPf9KVd797QUmujGO7sT+7oIdnK/zknS81+vlPWPu7d80vy1VdbLan+fUQzuj3/LP3HJX6PvjIlbedscdA6dqkz/yPxs3+dc9ReP6z5mOwtPvXokVtqgY45jfnHv2E4XTIUOaOAPBpdPaw/alwfLpdfuUh+dtiwPXOAYCto37q8548EtB4ToCjZL95nvzw4KGbBlOcWi5lrgCIU9rdf7+3ax4vQ3uvrIr7PTMdZ1H3TzYQ5Sp5jQawvdJ8+L/f3f8kXwse3lZBveHqAKVw2P57LfiG4ZTIUKYKgLg7Okpe0bp/rj2LWN7927BWXnzxrSeUXOfZO8d9hNqGGUX8UPDItkrTfQJKJbXk2MvWfSzFaeVOpgoAmxWt+7dnV0FF6/659uKzoBwd/t9R7e6Wv3F3/43DqoHGI9uraKxLyo7zmSNXrnuV+QxpNl7aEzC1eTyoDtf1nOPi3snZ8jnylkq9NlxrFc/u7iWujxM2j9Tr2524iye7f3eNNg9X6q7bWzzb/zZms2msXnPGwo7ixflRlq1/F70qOep4XwtGa93d+Cdp4/UQj+2o4pC9Jz/+l9I8T/3ncZfeevhtH3zF9lQnlwOZKQBG6rVwIJz7gIXxH2qMO69+HPIbqeqg7DQXQEXY8U8aqfqBZ3i8Ko+/l+GqDly39XeardHsFDutDFf9wIFO4D0zjZdcp5uW/b50wwJXOYcOV5M9+a/X38lwJcCG4ToO2KMMAHAUDgxL3n8AOC2WCRZYrj4CSCP5k13ymPz7GY9mymPyB4DF/qKTPAel4WqyN/6Jw6bROnaM756n66hTj73sN+/r2wRyKlcFgM3S2vHnJdFR8mzt/pPariVH4VMzf9B7pQYwWovvkb/dMnkrnthZxVjDx8Ae9IWHrfn985KbVf7lpgBIq/sv+k7EJkUrimzs1Ioqa90/AAx6OHqsFkI3TD72NR/jD6xF8Nj2KsKJGkApLJiP+lfj20Lx5KYAKJK8JDrmpeyxPdGl9dl/FrkKh9nQ/ZsSAWqBxhM7K1OveQ5OPHrFnXxoUJdyUQDY3v3ndxeSPbYXRaZsnx/NZNPveL+hXz+75DnP3tXw4J+0uv9Ofy87KyG2je++aVG5JBcdu/L2/ToMQ8hJAUAz2Z7oYr9/QbzhqAdpfTRh+5n/NtlrUB2pBaj42TkC0OipnXVUg+izAEepfZTrXpzylDIp8wVA0br/DO5rMsf27jovRRulpzSgDq/44dR7anv3Pz2eFsHj22tTr7tKvenIS+842jAcTch8AUDdy0siYQLLnqJ1/7YtvRLcF48Z3FjNZuN+iM1jdQCAUuIMltQlKU8pczJdALD7bzPOtr1NDrH77y0epctVeMHk4f+sdf+NNo40fBTgqFcdvebOMwzDEjJeAFDyitb9M4FlD7v/zrkOnlPxs30EAIjegyd27L5HeknhQkBUilPKlNwXAEXrhGyfX5Gw+28Xj6svXaKUcvarBTrT3f+ksXqIrWPRVQGOwouOXrHujYbhCy+zBQD3IfYoWvfPBGYPdv+d2+f8nx8Qih5Iex5x2rirNnWDIM91zkt3NtmR2QIgTnlJJLbPj5LH7p/m8uy9Bv+82sHlfzZ3/1E8gR8KNo9GJwS6Lg576ZrfnGK4mULLZAEQ98l/lLyidf9cefZg99+sJOUDakH+7nG4ebSOehD9VCUdfDzl6WRCJgsAmxWt+8/bTiTLitb9c+11p1QO96uF8Z4AaMNjmrUINu6KTgj0Su4Jh11020sNN1dYmSsAbL/0j5JnewLjmsqeonT/EWe/WmD689r9k0y3fdxH1deAiBoccP8p7fnYLnMFQB4UrfvP2D4k12wvnkxx7XXPgezrx3wEwES/TticPBfAc9WyQ4fWlw03W0iZKgBs7/65r0me7QkstSsimOkSZ3tRZExhD1/Pve00Hvkbh+0VH/VAoBT2mr/32Dlpz8dmmSoAaKaiJTpKnu2JLq1L//KiHsr8tOfQThzvmQiwZeIogAO8LYZp5VbuCgDbu392askrWlHEEzazJ839gB/oeXONSfuRv73aOu4j1IDrqBP5qOD2clcAFEnhEl284agHRev+bU103dCCBWnPoRcm75kWwbZxHwA8LTgz8UllVK4KAHb/ZCo3RZHl8yP7+OHsRwBsv/GPqe0TtwdWDk6LN3J+5KoAoJnykuhMMYHZg91/u3jpLtJQI/dnxotEjwuuBhqe470KQ0PMdS3k5pdStO6fiS55thdFtq95slMIabvft7377/SEzW1jPqBkr6P3OOVVHX1jQXhpT4DSl1oisfx+CGSPUIdw1dxPeWX3Pzct7QuAvNk+7uOAxQNwHfcfjlx15/6O6INcRx8IOAcqqAOUwkIAUFALBeJOfaNgTEMNAzIiGsMAhrXWT4onD0rgPBCGg/ff85HDx9L6ueKSiwLA9k6IiS6/2P23i8fVZyuR1pVUXrr/xniBFoz5IRaW3bfMA94SHfSerH8a4wmafikKcCa+vrtcmviPMgDU8PLVd24JIQ8jlLtDR90JL7z9t+877n6zn8YOuSgAKHlF6/6ZwLKH3b8ZrbU796j8GKkGWFju7kee7R1TjuzrAfvCUce5gn+CdvHy1etGQsHvglDfLOLccPeu62/H0FD/b7toiAXANLb/0ds+P0peXrp/Lr106BZvUB67/0kj1QAHLB6YETERCotdhVe7jvNqAJ86du/ThvXKU28PgRvGav63H/jX4zcks+HuZL4A4E1Q7FG07t/2KyKKhN2/Oa1VrUh7xIqv4YeCkjv3OSTdmO2tVQp7uK46xQVOKc0fvPhlq+74faDlR6ETfueec1/5h0Qm1IHMFwBpKFr3X5xdhf3Y/VOvQki1m+/LYvc/aaQWYJ/5JYQC1IOoIPBDjVbPRBABHAU4DuAqBc9V0f87CiVXweBc1Da04zjqyLKjjgScTx69at0j9SD8VuiHV60/7/gnuo3ai0wXAOzUsqdoRRHXlD3Y/Ue0NB8BsG1+SXh6uIandtagxfxCwla/FqWAsutgwFMouwplz0HZcTCv5GCw1NnFFa6DP59Xds+XkvexY1bdcWtdy//dOVz5+mNDJ3VVoHUj0wWAzdL6o2Kio6J1/1x7nRHoukJCh8NNx/X5I5twotPvdX4iQC3QqAUz5+cohXklB/M9F4MlB/PLLuaXHCg1x8mEShwodfyAo47fd68FF+95yR0/rIX6kvs/etxvDafbtcwWALYfCqXkFa37L0Knlra8d/8AoKCmOkx+ZBMfLYKxeoixejj1mqMUFpQdLCh7WFB2saDswp3lQIFSWFQuqTeVy97fHr1y3a1BKKvu/tAx/wWoRN6BzBYAeRD3O2p7orNxZ1hURev+i/bI31kJdiV0AMBs89afsGkab+6BWgQj1RAj1agoUAqYX3KxeNDDooGoIJg8p6BpuyLKcfDKsqNe+bJVdz5aD2+/3FvgXfGb9xw9bvhjGMnkHaFs7/6Z6JJXtO4/dMwicuXZw9r9gMJOIL1L/4pMBBirh9g4UsODW8Zxz8ZRPLqtgq2jPvyw9W9QKRwy4DkXO1X95Esuvf1zh669aWFc88lkAUAz2Z7orN0ZUltF6/6LkugUZCTtOcwlD92/SbxQC3ZWAjy+s4p7nxnF/ZvH8MxIHZX6zHsHKYW953nqEwuChU8cserOz8dRCGSuAMhL95/1nUgWWF8UGcYzxRM2yYQOnZ223/inqCq+xoZdNdy/ZQz3bRrDxpE6qv60YkDpvcpKnz8/WPDYESvuGHrhhb9a1O32MlcA0EzWJ7qULv2j5LH7bxfP4kXqRR8BZF3Wu//d8VqrBhobd9Vw3+ax6MjArlrTxwRKyT5lF59ePDjwyOGX3v6hE4du6vicvkwVALZ3auz+s8f2NWXK9vmRPSQ0KwBsT7BFUvE1nh6u456NY3hgcwVbx3yEEwcGlNL7Dnjq4vG9FvzhqBV3nNVJ3EwVANS9onX/3IXYg91/b/HippTelNKm+y6r3f9s8UbrIR7fUcM9G8fwp+1VDFcmbkqg5IWOg+8dtfL2n79kza0vMombuwKgaN0/E509itb9W32Ym9oKlWyca4zt3T+XXnSJ4fbxAA9vq+LejeN4ZlcdfihwlDppIHTvfsmlt3/h0KH15dliZOY+ALq6y3Cuae2Fk12RurKz1PJeEDFu1+Y/Ul0ZLjmG98KwPtF1EU7Gh0tAj08VNd5u3L9A0+3OEmJ8ZwnK/sI9C1fFqMDbADece2BBZKn7b6ceajw1XMPTIzXsOejhWfPLA4sH3fNkr9GlL7n01nff+8FX3Nzq+3J3BMCE7TsRU7YfaqSZ0qolUtvJcfFZZ/QLJ2wFnHq7r+el+y/i0hMBdlQCPLRtHOs3jWHLqP8XJeX9/PBL7viP56++ffH08bkqAHjySPLSOkTX6hnmvWzX9uKOZrL9vc1C9x9RoqC3pDyJXLKpeKoGGk8OV3Hvpl3OptHam+cHWP+SS28/s3FMrgqAONmeIGy/cx0lz/oOjGvKWgI80/J1ixJYb/EMxxXgyoRQCzaP1bF+0+iBG0dq33vhBTd/+9Ch6/YHMnQOwFx48og90koQeekQqXu2v7fpd/8RBTWW5aSWZWkVJ1oD28Z8tW3L8PIFHv564bn//YnMFAC+dm+CE76r3dfDNvdRTpIWJejXUzUc7xd1Hbwz2i76t90GYZjmiUPqlrqWd/Rzi1q58S6qHt4y0XKL7zhvT2q7oYj5mjL9OWJcooFWt8CRt8UVL0Q6763pR1mJUwi7zf/s/nuLlyq/CkiIMR/PgsJZKT4TioiI+k1E1N6fuuWXoehXNr9u+P3G2zGNV6wCwGRYInMTAcZ3TH5jTRzvMJ4DQERUII89hgHPw18luQ2bk2tn8XJ0ZUJ9bOo/lVKrsHbpgywAiIgK5Pxb7zvMgdqj8bVMJDBq0lFxEgZAMHXl5wY9v/JZgFcBEBEVysaR2jtcC/b87P57i9eRhu5fHPcjuPitYwALACKiwjjjK39cJCJvaHwtEwmMuiICoF4B9NQJ3L/CZcu+MfkPFgBERAWxtTKyWivZU6lsnP/N7r9dPMOBOgD8yuS/Ainjfzd+mQUAEVEBHLPijr/1PPfvAaDmR8+VsD6BUQ8EqDac+Ce4GiuX3904ggUAEVHOHbPqjr8fGHC/BhEVhoJ62OODpSzC7r/NuOo4IOFk8K16oPTx6WMycyMgIiLqzJGrf7vvoAov9lznLUqJAwDD1ej58dYnMB4k6F5QB4La1D9Feedh5ZKd04exACAiyomjrrxrvifBwai5h3kOznJcfapSanFjGt8y5qc4Q7vlovvXIaQ62vjKL3H50q+2Gur93Tf/MCOi7ffTjjOW8Rse83ZNpXbPcsN4pqz/OWJcL3n4GYAMzM90s7b/HHHeQU4DgAeUW39953iAih/ancA6imc4rjBHEwRoSv4yIm757YBq+RuYcQ5AHpI/9YbJv90wLtKkMfn3tNlZBaHgqeFqDJGKzeriqToK2X3JHwTqXKxZ8ki74YU+CZDdP6WlcImJay9VQSh4eNs4Ai12J7CO4hmOK0qBXxsDwt0f7yjId3D58q/N9i1N5wDkpftnorNH0bp/Lj17WL9W4k50bV4fq4V4fEc1V2f+267vxUl9HAhqjfE2aFV671xxeRLgHIrW/TOB2SMviYlFVv+JAKO1ENvG69hZCTr//g62YxYvH92/lc2lX4se8ztJUJOSOgerl26b61u9p4ajSwXifkx1/G+k3QmR8+sef3e9xsvH/EzF+9jVfPzuJkdpAfyJ6/xDPfN7rUxgBRVLceLXpu7zPxlPIB/A6uW3msT2dtVSviY0B3+ANs+ts3iWb9c4XnHml9rcctKpFW1Nxcn+98w0XkpHxnrVkPwnKZE1csUbvmwawgGY/NvHY7mcNO6oe4tHycvNmrItgdGc2hYn05L/xHv7Y71V/Usn8Qt9FUA/2Z5I0iraKHm2J5Lcd2oFxu6/t3gt+dUZnT8gt8kAluGa5WHL72nD+CRA2xOJ7QmWkle0NcUDVPawfk3ZlMCoe/Xx5hP+AIiWB8QpnY4VSyttvqstL1pA2Xg0ZN7ZnkhsT7DUPdsTie2f/VP3iremTONJ079QG4vu8d9IqYdE8DdYO/cZ/614UEog/a0AbE8k7NTyq2hrikvPHkXr/jN/Yx1biAC10aab/AAAFB7RyvlrfHnZ092G9iCiAeXOun3DYEx0yWP33y4eF1/SbE8kthdtlDz715RpvImBOoju7S/TbuKk8IjW4Um4fPlThptuyRGNjk4a6BfbEwk7tfwq2ppi8WSPonX/3D/OIqgBlZGZyV/kfh3g1bj8b5/sdROOAma9P2RanSR1j91/b/EoebYnEn4MmF+Z6P7r49Fn/tMo4E7tqlfjy8u7PuzfyBOFMKunAOblj56dWvYUbU2xU7MHu//e4llNNFDdFR36n0YpdV1YH1yOq04fj2tzjhLd9giA7Z0kdY/df7t4hgMpcUXr/rn07JFKceLXIOM72iR/5+rwWevPiDP5A4AnUDqrRwBM5OWPnsVT9uRmTbFTyxx2/+3iWbj42p3lDwACXyucj8vO/lISm/YAtNiq/d0/dyLJy00CM45nOM4wHiWvaGuKHwPaI5Y1ENQnPuuXmcWJUht1oN+IK99wS5dTnJMHaL/odwTOyx89i6fssX5NsVPLLXb/vcXriejoRL/pN/aZoAS3h6GcjSvfEMvJfu14oqWqpuX/vHT/3IUkz/oEZhzPcJxxPK4+WxRtTXHp2WPmeyFAvQr4lWmvTg0UpZy1oX/wB3HV0S2PzsfJA1Qt6Y3kgfV/9Mbx4t0uJc/2RJLrTq3g2P23i9eFMIgO90ubW+8INmtx34Urlv2gm/Dd8ABperJA0bp/JjpQiIGnAAAgAElEQVR7WF8UGcfjCZtZk5s1xaOj9tFhdLi/1Ul+iIoTpZzvh379Xbhq+dZ+Tm1GAUDdsz2R2F60UfdsTySZ6tSoI+z+24zTGqhXojv6tR81osX9INYu+4ph2Fh5AnT8CEHbEwk7tfwq2ppi8WQP69dUSgmWppk8wc9vfYJfw8D/DiX8F1y+vOdb+nbLQxhW4U1MJ61ZFIjticT2BEvdsz2R2H7jH0pepteU7O74Z4ungAfgeO8P1iy50WyryfEE2JVEYNsTCTu1/CramuLSs0fRun+esIno5D6/0vYz/imCijhYGY6OfhZfe7sVH717omUEYKKzCbv/dvG4+JKWl0TCjwHzy441JdEhfr+K6Wf1t4inAXw3DORDuGr5E2Zb6w8vlHCklNLGbU8k7NTyq2hrisWTPdj9t4uXATqMTurzDRt4hZtDqA/jsrPvSnZi3fGg9XBanSR1j91/b/EoebYnEn4MmF+xrikRSFCPEn+LB/W0jKfk5lDp87DmjbcbTSQlHqBGoiVu5yOB8vJHz04te4q2pnLVqWUcu//e4vVMBAjr0a165/psv5GSX4YhPokrlt+c3OTi44VhsAMigJq9AEirk6TusftvF89wICWuaN0/l549ZrxnooHAjxJ/Q9Kf8z0T+ACuD+BcirXLEntwTxI8wNkeFQBpT6V7efmjZ/GUPblZU1nt1AqM3X+7eMYRgTCc6PT9GSfzGXhGw7laS3g5Ll/+TKffbANPS33TXL9Z2ztJSp71Ccw4nuE4w3iUvKKtKX4MmJTJhO9Hl+4ZHNpv/U6o34vG2jA4+Gv9eGBPkrzQK2+E6LTnkbi8/NHzhM3ssX5NWd+pUbcK3f3rMEr0OoxO3tO7O/wu9nubFPR3UHb/f//Ss3/X6TfbyntOUN44El2n6LQaYHv3z12IPXJTFBnH4+qzRdHWFJfeNKKjE/YmE73u+HB+K8NKq59oR30j3BReh2veEEtQmygAOPKiX+xQ5Xl7thqQlwLAZH42z62zeJZv1zheceZneyLJTyeZkzUV43btf88MBlVGIHNcorc73qwBt0PkJ1o514Rqw4+x5v2zPckn8zwAEMF2BcwoAIqWSCh5hdtRG8aj5OVmTfHoaLOgBohZ8m9J4QEAP9Za/TTcd58bMXRSD8GyJXoMkA53pDyPzLA9kdhetFH3bE8ktneSlLz+rykB6pVO9nsCkQcB9UvtqJ+HvvMzfHnpZsPp5M7EEQC9bfoXbE8k7NTyq2hrisWTPaxfU5YXbX1XryA6ha0NhV1KcDeg1omSdX4ot2T1kr0keACgQ73RtfhugFljeyKxPcFS9/KSSPgxYH7FtqZ0CATV3eMET0LhPgX1B3GcuyFyd33ve+7D0FD+L3PrkgcAoVJPl7QGHLejb7Y9kbBTy6+irSkuPXuw++8tXmzq41P/qR314WDVskv6PIPMiy790/rJxnePiS557P7bxePis4XtiYQfA+bXnG9ZUAe0H40T/WCw196r+jGvvHEAINThY9DJHCWxPZGwU8uvoq0pXkNuD3b/7eLFQZq7f/H+uUhn7scpOgLgOn+aPJEi7k6Susfuv7d4lDzbEwk/BsyhiRP/ou5fvhesXfrTtKeUVQ4AeOFz/wSd3v2A8/JHz8Pc2VO0NcUjWfZg999FPB0AQXUyYEUp7yOGYakFBwDWDx1aFwm3p9VJUvJyk8CM4xkOpMQVrfvn0ktQbWzqPzXUxbU1Sx5JcTaZN3X/fx3qp9KcyFzy8kfPRJc9uVlTKXWS1D12/w38KiYf2SuCx4JS+AXDsNRGYwHwuMlTAZnA8sv6BGYcz3CcYTxKXtHWFD8G7JBowN994l8I9c9YsbyS4oxyYXcBAPwp648FzssffVon/1H3rF9TlneS1L1CdP8Nh/5FyzXhmmXXGYalWewuAEQenusRirYnWEpebooi43hcfbYo2pri0pvg1wDtT/5rZ13L+9OcTp5MFQAh5I9J3QvAJtb/0RvHS2e71D3bE4ntnSQlz7ruXzTgN574h4/xXv7x8Sb/Q4l7/2yPVMxLVU3Js74oMo7H4ilrcrOmeMJmpDo69Z9Ky23+ZWdfmeJscmfqCMADQ6/ZIFoPpzkZW9ieSGy/8Q8lz/ZEYucd5CgOfVtTfg1TTanA16XSewDFpRAjp/EfoqXliYC5qaoN41HyirammOjsYf2asrxo64tph/5FnIvqK866N8UZ5VJTAaBFHpzrRECKWJ9ImMAKz/ZEwo8B86vnNdVw6B/AH+r1536mtxlRK00FQAh1P3TzeQC2JxIe5s6voq0pJjp7sPvvLV5P6hU0nI9W1x7eiquO9mf7FupO8xEALfcW4UqAfmH33y4eE5gtbE8k/Bgwv1q+ZToAgkrjmC/6l579u/7NqlimfQTg/a6bjwBsTyQ8zJ1fRVtTvIbcHuz+28XrlgDVsYZ/yr312sGf7zoczampAHhw6H89KtC7Jk8EZKdmj6J1/1x59rA9kfBjwJyojQOYaEAFNXHKb+Gh/2Q5018IQ/ljEicC5uWPnokuewq3pngkyxrs/g3jBXUgrDV8Xf6tvurMewzDUZdmFAACuQc6YALLoNwkMON4hgMpcUXr/rn0YiQaqO8+9K+03FHfJBekOKPCmHkEQJzfpnUpYF7+6Jnosic3ayqlTpKSl9vuvzra+N0jUiq/Bdcs5/XofeDNeEXL7RKa/e65E8ke6xOYcTzDcYbxKHlFW1M8YdNAfRyNt6DXjjrXX3HmwynOqFBmHAG4H7ffDcg4xM4CLDd/9Mbx4t0udc/6NWX558iUvEx1/6EPBNWpfyqtvuWvXPY1w1AUgxkFAIaGtNbyIOY4CsBOLb9yUxQZx+Pqs0XR1lRh94+igVrD3f60PF5V896T3oSKaWYBACAU3GXrEQAT1v/RG8dLZ7vUvbwkkkzeQY6MWNH9N3/uH4TivBVrThsxDEUxaVkABAq3Imh/+aXtCZaSZ31RZByPxVPW5GZNFfWEzWmf+4uoLwZrl92S4owKq00BoP4HAFo9GTAvbE8ktt/4h5JneyKx5w5yFLfE1lRQb/rcH5Bf1Z8Jh8xnRnFqWQA88olTntQimxAGM75mfVVtGI+Sl5tOzTie4TjDeNQ969eU5UVbInQI1Bs+9xdsdtzBN/KSv/S0LAAAQER+N/3JgEVjfSJhAis82xMJPwbMr87WlEx/xG8QanlTZcXpT8c+MTLWtgAI4Nw6/QiA9VW1cTzDgZS4oq0pJjp7sPvvLV5HqqOYus9/NJfPBmvP+VkCW6IOtC0AwrB2AwBk+WqAfmD33y4eE5gtbE8k/Bgwv0QQnfSnG04qF9xYX302n/JngbYFwINDr79TRHZMHgWwPZHwMHd+FW1N8Q5y9mD33y6eoekn/WnZUIN+C6C4ei3QtgAAlISCO1udCEjJKFr3zz2APWxPJPwYMINmnvRXCz05G2uWb0lvUtRolgIACCS8uZMHA+Xlj56JLnsKt6Z4JMsa7P5bB5NK00l/0ND/EqxcfpvZVqgfZi8AgB8DgIT1/syG5pSbBGYcz3AgJa5o3T+XXg9qzSf9QXCFv2b5FanNh1qatQB4+FOn/U4Em+P8GCAvf/RMdNmTmzWVUidJyctF918bg4SNd5KVX9X22ef9Zlugfpq1AACAQMJbogJg9reeOxF7WJ/AjOMZjjOMR8kr2priCZvT1CtAUNv9by1P15R/NoZO4slkFpq7AIC6HhDM9XTAOOXmj944Xrzbpe5Zv6Ys/xyZkmdt9x/UAb+ye5xIVSvnbKx60yazLVC/zVkAeCGuhagA4SwPB2Knljm5KYqM43H12aJoa6oQ+0cdND/eFxCt3H/01yy7Pa0p0dzmLADWD712e6j172crANJg/R+9cbx0tkvJsz2RZOIOctSVvnb/ooHKruZxoi71Vy/9P2bRKS1zFgAAECi5sd3HAOzU8sv6osg4Hk/YzJrcrKm8n7ApMpH8myZ2bW3N0o+kNCPqgFEBIA6+BaD5do4ZkJdEwgSWX7YnEj7yN796f88EqO7C5O3io3Fyd608/mbe6S8bjAqAB84/9R6t5U8Imu8HYHuCpeTlplMzjmc4zjAedc/6NWV50daz6iianhir5Sl3sPw6XPzWsf5MgHplVAAAQCi4LvoYoJhXcxSt+2cCs4ftiYQfA+ZX23eiNobG88JEYZf25PTxi87c0JeJUSyMC4BAy7cBABN3BWSnRqas79SM4xmOM47H1Zc0dv+9xWupPt58rT/Eh3hv9Fcuv7uHqJQC4wLgwaFTf6W1bIyqPu64Wila988EZg/bEwk/BswJvxr9r0Go8YHa6rOuT2lG1APjAgAANNSPAEACs5MB2amRKdsTie2dJHWP3X+7eNMEtaj7b6C1+wX/snMuN4tItumoAAgkjK7rDPhwoG4Vrftn/rKHNYmkbTxe7WKt0I8+928i/6d+2ZKPpzIfikVHBcADnzrt12GoH4UOpy79aMf2P3omuuwp3JrieSyZk8vuPwyiy/0aKfWT6kb5B7NoZKuOCgAACLT6XvQf2bonQJbkJoEZxzMcSIkrWvfPjwHnEAZAdaT5NS23VZ1wKa5Z3r8HxFAiOi4A6vCugoLM9jFA0f7omejskZs1lVInScnLTPevW3T+gj9WxT0dK5ZXzKKRzTouAB4d+l8PhqHcDQhsez5AkVifwIzjGY4zjEfJK9qaKuQJmzqYeYtfwZMK6mSsXbottXlRrDouAAAg0Prr0X/U5hjZXm7+6I3jxbtdSp7tiSStTpKSl2r3r8NWyX+Ldp1TKmuWPWUWibKgqwIgBL4KhbFWJwNyF2KP3BRFxvF4wqYtCrem8nIkS4cTh/13z1QpNRw66nX1lUvvT29ilISuCoCHh04bCUK5DkCilwRa/0dvHC+d7VLybE8kVt1BjmIVe/c/mfxFN7484qvwVH/Vsjs7niBZr6sCAABCpa8EMFEARCuMZ9Rmj/VFkXE8nrCZNblZU3k4YbNV8hc1DrhLg5XLb0thRtQHXRcAD3zytJ9rwUMAAL/7cwH6xfZEwgSWX7YnEj7yN7+M3jMdQioj05I/KuKos6qrl/wssclR6rouAADA1/pqAEBQ72AnwkSXNbnp1IzjGY4zjEfds35NWV60zWnqUr+mE/587bpvqq1a+tN4NkK26qkA8GTwChEZASQXNwYqWvfPBGYP2xMJb6yTQzoAqqOQps/8xdeO8+b6yiXfT21e1Dc9FQDrh04aDUP5lgBAUJ1rOBNdjlnfqRnHMxxnHI+rzxZF6/5njTeR/Gd0/qr0d/VVS68xmwllXU8FAABUXfdiiIQQAcL8PySoaN0/E5g9rEwkTfEMx/FjwHSFbQ77O86b66vO+nZq86K+67kAePSTr3lIa/wcwKwnAzLRUV4SSVqdJCUv991/UAdquxrGCSCoaVU+h51/8fRcAABATeQCANFZpAU4CjCXonX/zF/2YPffW7xcC2pAfdojfQUVcUvL6qvPuDadSVGaYikAHh469RdadHSjiBZHAWz/o2eis0deEknh7iBXIJns/v0qUB9vHqelIq67rLbyzOvMZkB5E0sBAAB17V0IgEcBDOUmgRnHMxxIiWP33y5eThepX4n+10gwLs7gktrKJT9OZ1Jkg9gKgIc+ffJ/C+QBAFG1OXl3wJz80TPR2SM3ayqlTpKSZ033Xx+b2B83GRbg9bVVr7/BbOuUV7EVAABQ0/JFANEqTPAZAUVhfQIzjmc4zjAeJa9oayp/J2wKUBuduR/WsiWQ8G+qq5fdlM68yCYq3nCiDv38DX90oP4CAGRwkdEmrP+jN45n+XaN4xVnfrYnEms6ybbxDMflZU3FuN3E3jOZSP46aB6g5anQdV7Dp/rRpFiPAABKfI1/m/pnBp4RkHXcUfcWj7pXuDWVhSNZoqNr/Kcnf4UHRavjmfypUcwFAPDgp177da31fQCiy07m+Kux/o/eOF4626Xk2Z5I0ur+KXkdvWc6ACojgITTg/zO9dQJ1bXLHo9/hpRlsRcAAFAP9Oendob++OyDKXHWF0XG8XjCZtbkZk3ZfsJmUJ95d79oQzdVymMnjF68dHPMW6QcSKQAeOizr/tmqPEbANFtJ3U4x3fEw/ZEwgSWX7YnEj7yN7+kXp15gx8AEP29imw4FRe/tcUXiRIqAADAF/kwlIr2E/VKyzFMdPbITadmHM9wnGE8Sl7Run+joq3e4hp/AMpxrqrsvf5srHk/T8SitmK+CqDZiz9z/fWu45wKACjNA7xy09fT2FkXrfvPS4LNw/ysTiQdxTMcl4P3LJntmsabZaAIUBsDQn/6qFCLfLS2+uxLDadDBZbYEQAA8Ev4MATR6ah+pWnls1PLHut31MbxDMcZx+Pqs0Uhkr8OgcquFslfxkLlnM3kT6YSLQAe/vhp9wWQr069kJETAtn9U1rY/beLZzgw78I2Z/prbIZyTq6vXPL9dCZGWZRoAQAA9bL3UQG2AIgW78xDVm0x0WVPXhJJWp0kJS+z3b9fmzjTf9p2RR7UcF5RWbn0NsOpEAHoQwHw6HknD9e0/vTUC/VKLvaGRev+s/+O5Qe7/97iZc/E5/31FkdQRf3SC51X1NYseaT/86KsS/QkwEYv/sxP7nIdHCUA4JaA8vxZx+dmp2T5zjCN+dk8t87iZbST7Dqe4bgcvG/WvGeigerojEupBYACvj5eOeiduOpo33AaRE28fm0odPFeV/BrAB5CHwh8wCv1a/OpyMOOsLN4hgMpcUz+7eJlaJGGQZT8Z/x04usQH6lddvaqNKZF+ZH4RwCTHvzEa9cFWq6cesGvRNVtC3nZKVHybE8k1t9BjrqWaPdfr7a7s9/O0Bl4PZM/xaFvBQAAjO7c9REt+FP0L2l7g6AisT6BGcczHGccj5kuaVxTvW03ESJR19/i5j4A7g+BY2orTr+x39OifOprAfDUiuWVWl3+GWrib1YH0QODGuRmp8QEZg3bE0lan/1T8jp6z3QYXeIXtvhIX/DT8Up4XG312Q/FO0Mqsr6dBNjoRUM/+U/XxZumXhhYCDgugOIVACajcvM7MY6Xk/lZXgDwhM1+bNdwnF9tfZY/IFqcL1ZXn3U+oFjZUaz6egRgksyr/aMInph6oVYBIPlJJLy0LnNyk0hiPvmPkiaQ6q42yV+NiCdvrq5e8nEmf0pCKgXAA/965q5KNXynUpi4tiXk+QA9sr4oMo7HEzazJjdrqt9Fmw6AynDrQ/5K7g1dvKxyydnfNNwcUcdSKQAA4E8XvO6nftBwVUDozzgfoBXbEwkTWH5Zm0im4qUzP+qCXwGqI2h1JZQSXDM+PvDy2qVLH0xhZlQgfbsPQCs1PPMhR/Z/taPUoSIA/Gp0LoCT6rRyKzedmnE8w3GG8Sh5ue/+RQO10aj7nz5OMK6V+kB19dKrDTdD1JNUTgJs9PwLrv/LgcC5Q4CF0SsKGFwIqNYHJ8xOmitW95+XBJuH+RWt+8/De5bMdlu8GNajW/o2RJkap/AoSjhn/EvLfmu4CaKepfYRwKSHP37afVUtH9r9igD15j+Shq9QwqzfURvHMxxnHI+rzxbZS/4T+7Ra8139Gsb9YDycdySTP/Vb6kcAJr1w6Cffdh0sn3rB8YCBBU1jYu3UjGPFt81Etmscj/PrLV58yYTdf7t4huOM41lQAOgg6vqnP74XgGiMC3BeZfWyNYahiWKV+hGASbvgv12LrJ96QQdNd8Nip5Y9TCSUlvSTvwD++MSJfjOTvxZ5AAM4gcmf0mRNAbBh6PTxuuMugWDn1ItBPfrcLCXs/tvFMxxIXWP331u8VOkguqOfX231VVHKuaoyvOsIHvKntFnzEcCk5w/deEbJCb+roNzJ16Q0D/DKc34vT/5rF8/e+dk8tyhe2p3kXPFYALSOl9IJm36l3X38AZFt2lHvqqxY9j3DkESJsuYIwKSHh17zg0CrLza9WB+PHo1poTzsCDuLZzjOMB51j8m/XbwUVt/kTX3aJn/1M1HqJUz+ZBPrjgBMeuHQ9f/lOs6ypj/mwYVt7xHA7r9dvOzPz+a5JbNd03gsAFrH6+cJmwLUK9G9/Ft+WVU08OnKqiUX83a+ZBvrjgBM8nDQm0It65perI5FT8zKGOt3hMbxDMcZx+P+MGlcU71td1ZhAIzvAvw2dzAV/FaVysdUVi39EpM/2cjaAmD90KH1er1+hgae3P2qTFxS03z7TNu7f0qe7Ykkre6fEiAT+6HqLkDCme+FqJoo+fTYhvCY0Ytf/4d0Jkk0N2s/Aph0yOdufEEpDH/lKDx76kXlAIOLABVN3/YCwOxkOMNtmg3LT6dmHM9wnHG8fBQAPGEz5u0GdaA23vTVpvdC1H3iydvGL1l2p9lWiNJjfQEAAIcMXXd0WTn/o4A9pl5ULjC4AGL4I9ic/DvarnE8zq/7WEz+rePlZE11s10dtj0ZeeL98AF1+dj4cz+Cq45u8Xg/IvtkogAAgIOHfnziPCXXAWr+1IvKgZQXAM7cn2TkoQAo3I7aOJ7hOON4LABaxzM6Jc4wluE443gJ/k78atvHlQsE0PijVvK2yqqz7zCLTmQHa88BmO6xoVN/URP3DRBM3RlIpp6sNfORmo3ykPypP5j828Ur4CINfWB8pG3yh5KqVrhwTJ4+gsmfsigzRwAmPe+TP3rLgOd8TUG5u3dJKnpugOO2/J68FACF+pzWOJ7hOON4LABax8vB+S6m253lcH9DsFtRGngPT/KjLMtcAQAAz/vUde8bcJ3VmH4EY2DBjPsEFCn5R/E4v97iGRzmZvLvMZ7hOON4cf1eBPCrkHqba/qjIVu1qPPHVy+5ynB6RNZq3TJbbufN37hz8ave5Luu+ms0FjGhD7hedJUAtWX9jto4nuE443gFPMxtqb4n/7AGVEch7bt+UZD/UF75jLGVZ/7ScHpEVsvkEYBJhwz96L0l5axufG4AAGDi2QHs/nuNZzjOOF5O5hfrCZuG49j9t4nX4+9FguiyvokbjLUcp/CoOM57xy456wbDaRFlQqYLAAD486Hr3lZSzlUASk1f8AYgpUGjGCwA2sWLM1ZOfnc8/N9jPMNxRrF6+Z3o6OS+oD7LOBnVwCXj4wf9Gy/tozzKfAEAAIcM3fD6MsJvQzVcIghAHA8oz5+6YVArTP7t4hmOM46Xk/nFmsBMYzH5t47Xze8l+py/1aN6G8aJQH4UKnygumLZo4bTIcqcXBQAQHSfgAHgWqWwGGj4Y1YOMDC//RUCLADaxDMcZxTL3rlF8dj9t46X/fdt9xCJ7tnf5ml9u/cX+l6I84HRlUt/bjgNoszKzdlyjw2d+otKrX4aRHY0fUE0UB3t6XHCedgRdhbPcJxhPOoek3+7eB2svqAGjM/yqN4o4E5R+mOje/zhCCZ/KorcHAGY9LzP/uTwUqh/pJQ6cMYXS4NAaWDqn+z+28UzHGccz6BTM45lOM44Hrv/1vGyv6YQ1KNL+mSWJ4gKfFFypSfOJ3euXLLTcPNEuZC7AgAADh66bv+SVj9wHPWyGV90d58XEGcBYPWOsKN4huOM4+VkfhYXAHzPpgl8wK9EN/SZ3Y8F3kdGV5yx3nDTRLmSywIAAI668q7S8IbN/+4q9daZX1WQ8jzALc380jSZ3xl2HM9wnHG8+ObH5N9rPMNxWV1TE4l/suNvN0xEfiuizhtbtfSnhpskyqXcFgCTnveJ6z5S9tQFgGq6RaBAAG8gumfALHKRwIzjGY4zjpeT+RWoAMjkezYt8bfdruAhDfW5sZVL/q/h5ohyLfcFAAAc9LEfnjZQdv5TKWdPYNqOVbnRLYRb3D0wkzvDnuIZjjOO1//5Mfm3i2c4LktrqkXib7PdjRrqwrGn/MtwzfI5PxcgKopCFAAAcMhnr3uJp50fKODgmTtXBZTnAW656dVcJDDjeIbjjOPlZH4sAHqIZTjOOJ5EowM/uo6/zcl9DZf+DYeCS8ZVeDFWLJ/lEgCiYipMAQAAh3zxp3uosfpXXVctbTnAKUWFgHLyk8CM4xmOM45n7/yY/NvFs/c9AwRSq0b37Jc5Hv8tsgtKXYkavrhr7dJtZrMgKp5CFQCTDv7UdW8vO2oVgEUtB3iDEG+g5ZemszqBmW2yYImEBUD7eBae7yISndHv1+YeLXpMw/mKckqf23XJ6VvNZkBUXIUsAADgwE/c+IJ5bvAdpXDE9K+JILpzYHn+rE8WtD6BGcczHGccL/vzY/LvNZ7huHZf0EF0mD/wJ8bNElD0GOB8RZj4iTpS2AIAAA4d+k65oudd5Dnu/0bDXRGbdl5e882DGtmcwEzj2Ty3KJ7hOON47P5bx7PkfJfQjx7S03ANf9vfiWAUwFeB+Z8ZWfHa7YZTI6IJhS4AJj33E9efPejgy3CwT8sdl3Kiuwg23DfA+gRmHM9wnHG8nMyv2wTWZawoXnGSf1M8keh2vX7rz/dn/F4EOzTU2lJ54cU7Ljx52HBaRDQNC4AJB3zoh8+aN99d47h4A6TN78VxJ04SdO1PYMbx4oxVnOTf2XZN4xWsANBBlPQbHsk7c5sNwbR6Qly5YsB112696MxdhtMhojZYAExz0Md+eFppwL1cCQ5qN0bcUnQDoVkeMwzkaEdtHC8n84txu0z+LSIF9eikvrlv1QuJfjP3SuisHd1rj69g6KTun+pFRE1YALSw34dvWLBgXnCx66p3QTDjOcJTO7nSwMT5Aa1/jdnfWZvHs3luUTx2/63j9el902HU6QfV2cc1fAcUfu6LWjF+6VnXG26eiDrAAmAWB53//VeUvNLVCuovJ1+bueNSQKk8oxDI7I6663g5mV8KBUBuk79E3T7CenRWf7txzeoQ+UEA57NjK86613DTRNQFFgBzOHRofXlMP/rxkuN+EIJF7XdeCigPAF4ZQAdPGjScRx4SrM1zS2a7pvFyVgBMJv3Qn31c80aeCAVfhSdXjF68dLAKz90AAAiLSURBVLPhJomoBywADD3v49fup7zSpx3Bu6DgtR+pIN7MIwKtpL6jji1eTuaXgwIgtfcsnDzEP/sNe6ZtVgvwayj36pEnqt/gffqJ+osFQIcOHPrxYQOhrFIKJ7YbE+3Q1cTTBmc5R8Bwm7lJsEaxDLdpNqxQyT+KZzgujvdM9MR9+WuQNvfln7ldACLbBPhPUVi769KlDxp9IxHFjgVAl55z/nVnlh25WCnn+Y2vt9yhuxNHBJTbMM5MkZJ/FM9wnHE8FgAzY/Xwnk0m/WD35/odvBf3ilJfGdnlXY2rTh83/DYiSggLgB4cOrS+PBY89j5XyYeVcg4A5tihO6WoEHC84iVY43hxxmLybx2vw/dsKum3vnRvjmibReO/1Lzy1TsveN3dhlMkoj5gARCDQ4fWl0f9R9/tKeejcPCcucYL3KgQcEuz3kuAyb/XeCwAWsczOGFTNOBPnsHf/vB+m0h1KOcWLerrI7sO+BauOrr12YBElCoWADGKCoHH3+068lGl2hcCTftf14vOFWi4zfDucTlJsMbxDMcZxWLybx1vlpE6nDp7X0LDz/Sb/3mvKHwz8J2vjq06c5PhlIgoJSwAEnDo0PryiP/oP5dc51wFPHf611vug5UTXULolaeeQJiLS+uM4xmOM47HAqB1vIaRgomEXwfCsCmK8drT8hQc9e3ALX1l9KLX3284DSKyAAuAJA0NOc+pHX6G53ofcBznVQCU0Q7d9SBOKTp5cI53yPoEaxzPcJxxPJPD3HFv0zReism/ocuHnvngnalxs1IbBfo6cdW3hi866+eAMp0CEVmEBUCf/Nn5P3h5STnnOsASKNX6+cINpvaojhd9PNCmGDA7HG42xyIl/2S2axqvj/PTYZTswwASBnONnthuy0NUGwT6eiZ9ovxgAdBnfzZ0/YFeoD/oAG9VSu3TakzbPeu0YsD6BGscz3Cccbz4Emzmkn9Dwo8u05PO4jV/RPAkHOfawJVv7rrwrFvNIhBRVrAASMlRV95V2vTExuWewjsU1KuV2n2TAKN9tXIgrgc4ZcCd8byiJlbfQc7i5N/Zdk3jxTy/Ngm/y3giwL3Q+sbQ8/575KIzbjebBRFlEQsACxxw/g3PcXTt7SXPeTOg/sLke5oTnQK80sQRAm/qJMJonNkcWAD0ul2TWD3OTXSU5HUYHdLXZk/GnWNuFQC/1kr9CNr7/s5LXve4UVAiyjwWAJY54KPXnlwqu+9wBKfCUXu0GzdrolNudFTA8SBOc0HQNp7B3Jj8e43XwfxEAAmis/N1EHX4076/6/mJPCBQN4YIrhtZtM/PMHSSWSVBRLnCAsBSR115V2nTk8+c7in1BiXyWii1ePJrnSdiZ6IgKAGOEx0paDlujngsAHqM12agDqMz8nUQHdLXYdTtxzQ30bIFSm4TpW4ShR8Of2nJI4bfTkQ5xgIgAw4dWl/eWXv8DM8N3+AIThGlFpl836xJQrnRxwWOC1Eu4Mx+HgHQwbXhJnMrYvIXPdHRh4BM/G/apXjxPKRHtkA5t4WCm5Xr/XTHha+712yWRFQkLACy5pzvuP/fgeVXePOcJY7CKUo5L0aL97GrBOY4UWEw9RGC29FNibrebizxbCgAJpK86CixTyZ40VFnbxSv8yJLRLYp5d4dKvUrx8UN27/w+tt5mR4RzYUFQMbtd96PDvEcLHEVTnEUXglgPhBzInYcCJzmAsFxWj7HwOr7EvS6XZlM8AJICNGNyV63PWwf688hytei7wPwG1HuOrjurezwiagbLADyZOLogDNPnehodZxycYJSzsJ2w7u6Nnw65UT/cxwI1MS/1UShgN3/7ma7ZsN6KAAk+p80/0+0BqAbkn3r5N6Xn0M5WyByRyi4VTt63YL53m0bhvgoXSLqHQuAPBu6yfuz+tgJAP7GgRzvKBwOpfac/HIsBUDjuFm/OlkcICoUgBbFwe7/lsZ/q8avSdOGpCkxT5vBZFIHJrr1hoTf9mdI6aMEDR+QRwXyRxHcK1qt0wPer4a/+PodhiGIiDrCAqBg9j/vewc7cI9TrjpaaRzpKByNWU4qTO+z/5gTcVrbbf3iFoHco0TdHwjWK0/uGZzn3s3Onoj6iQVA0Z3zHfeAQ+cdjpo60lE4HJC/VMCLlFIHAFA2FwBWJ3+R7aLwhGh5HA7+FIrzILzgHm8g/P2WoeWjZjMiIkoOCwBqaa9//ekeAzL+Ukepv1Ku+nOl8AIlcrAo9VwlaDqvoKDdfx1KbRAtj0PwWKjkUUepR6SkH9LBwgd2XHjysNlWiYjSwQKAOvasj157gBvoF7sDpYOh5DkI5UC46kAlOADA/kphbwAzbiyQRgHQ6TZFMAyFLRBshcgzADZpx9kAYBM0nlaD3tMq9DdsvuDMTWaRiYjsxAKAEiDqWR//7v4Ki/bzfH9/Kct+0LKfiCx2ldpTRO+poBYrpRYDMl8mLl1UggERGYxiqEFRKAOAUmo+INHtC7WqipK6iEBBNETtPpzuqFGBhACgoOoAxrXWw1BqBKJGBLJLA8NKMALP3SkhdsDVw45X3lnfVRleqPxNT61YXunrr4qIiIiIiIiIiIiIiIiIiIiIiIiIiIiIiIiIiIiIiIiIiIiIiIiIiIiIiIiIiIiIiIiIiIiIiIiIiIiIiIiIiIiIiIiIiIiIiIiIiIiIiIiIiIiIiIiIiIiIiIiIiIiIiIiIiIiIiIiIiIiIiIiIiIiIiIiIiIiIiIiIiIiIiIiIiIiIiIiIiIiIiIiIiIiIiIiIiIiIiIiIiIiIiIiIiIiIiIiIiIiIiIiIiIiIiIiIiIiIiIiIiIiIiIiIiIiIiIiIiIiIiIiIiIiIiIiIiIiIiIiIiIiIiIiIiIiIiIiIiIiIiIiIiIiIiIiIiIiIiIiIiIiIiIiIiIiIiIiIiIgo4/4fEJ2Fux+M+rgAAAAASUVORK5CYII=;" vertex="1" parent="eBhDLRAJo3qDtjfBZI72-25">
          <mxGeometry x="651.2949476082003" y="425.03125000000017" width="38.81176747487949" height="38.81176747487949" as="geometry" />
        </mxCell>
        <mxCell id="eBhDLRAJo3qDtjfBZI72-1" value="&lt;font style=&quot;font-size: 35px;&quot;&gt;Namenode&lt;/font&gt;" style="rounded=0;whiteSpace=wrap;html=1;" vertex="1" parent="eBhDLRAJo3qDtjfBZI72-25">
          <mxGeometry x="418.74943052391797" y="107.67458333333332" width="390.83280182232346" height="167.5" as="geometry" />
        </mxCell>
        <mxCell id="eBhDLRAJo3qDtjfBZI72-14" value="" style="shape=image;verticalLabelPosition=bottom;labelBackgroundColor=default;verticalAlign=top;aspect=fixed;imageAspect=0;image=data:image/png,iVBORw0KGgoAAAANSUhEUgAAAgAAAAIACAYAAAD0eNT6AAAACXBIWXMAATr1AAE69QGXCHZXAAAAGXRFWHRTb2Z0d2FyZQB3d3cuaW5rc2NhcGUub3Jnm+48GgAAIABJREFUeJzt3XmYJFWVN/7vjYjMql7ZRPgxKMjoqMPIIgiioDDzIoKydDe0jjqOOi4zOq84boPiUi6DgkBvNAiM/nx9Z9yYUVFBwVEElaVBRbBBVlm76b2ruqpyiYh73j+iqjqzKrPqZmZExo2I7+d5fKSzbp24VXkrzjmRsQBERERERERERERERERERERERERERERERERERERERERERERERERERERERERERERERERERERERERERERERERERERERERERERERERERERERERERERERERERERERERERERERERERERERERERERERERERERERERERERERERERERERERERERERERERERERERERERERERERERERERERERERERERERERERERERERERERERERERERERERERERERERERERERERERERERERERERERERERERERERERERERERERERERERERERERERERERERERERERERERERERERERERERERERERERPFQaU+AiOZ28r/f/Z6FJfXl2caIiFEss1GAYTjjeK0G/vAdR3AfRJQSJ+0JEBERUf+xACDKgSx2/0SULhYAREREBcQCgCjj2P0TUTe8tCdARHPbPFKvb3d6y6TWFwpE1FcsAIgyYKTqB16b43VxJmzzWPEWE0TUf/wIgCjD4u7Wiag4WAAQUUfY/RPlAwsAooziZ/VE1AsWAEQUOxYTRPZjAUCUQWl1/6aH/4nIfiwAiCgVrCWI0sUCgChjbO/+mdeJsoEFABERUQGxACDKkLx0/zz8T5Q+FgBEREQFxAKAKCPY/RNRnFgAEBERFRALAKIcYfdPRKZYABARERUQCwCigmH3T0QACwCi3GCCJaJOsAAgohnY/RPlHwsAohzgI3+JqFMsAIioK+z+ibKNBQBRxvGRv0TUDRYARJQY1hJE9mIBQJRhtt/4h4jsxQKAiIiogFgAEGWU7d0/D/8T2Y0FABERUQGxACDKIHb/RNQrFgBEREQFxAKAKGPy0v3zIAFRulgAEBERFRALAKIcYvdPRHNhAUCUITy5jojiwgKAqKDY/RMVGwsAooxggiWiOLEAIKK22P0T5RcLAKIMCMUsd/KRv0RkigUAEfWE3T9RNrEAIMoJPvKXiDrBAoCIEsdigsg+LACIcsD2G/8QkX1YABARERUQCwCijLO9++dBAiI7eWlPgIjmJpWdpbbletwZNu7j+qwAiKzEIwBEGZaXRwMTUf+xACAiIiogFgBEGcXun4h6wQKAiIiogHgSIFEmqFvqWt6RVHStHIGKOWjc8YiIiIiIiIiIiIiIiIiIiIiIiIiIiIiIiIiIiIiIiIiIiIiIiIiIiIiIMos368yI13313n9aPIDL233d/MEwdj3w5Zq/O8xoDZ5y1d3/uGhQXTG1XcP4cT8wx5TJg3UEwLVvO8Lo5/+bK+9+z4IyvjxXPCMWrZXr/+FI7oOIUsKHAVHX0nraWx6SPxFR2lgA5EBa3T/ZI4vdPxGliwUAZUpeun/mQyJKGwuAjMvqZ/8UH3b/RNQNL+0JkJktI9X6SGnm62l1xP3udLdUwtqOami2zZjnFncC6+Ycgc2j9Zrn6DbxDLdruC3bf39EFA8WABkxEgTBgG4+YbpIO/7hSi0sGR6vir0osuD3Mlz1A6/Nz296xYGJtNYUEfUfPwKgXMlj8p89HhMsEXWHBUBGFan7p/5g909ULCwAqHCK1v0zDRNRKywAMigv3X/sl+DFHI9mYvdPlB8sAIhaKFr3z3xNVDwsAHKK3X+bcUx0ieNHE0TZwAIgY5jA7FG07p9LjyhfWAAUWF4SSVqX/lH3+BsmSh8LgAxhp5Y9Rev+WTwRZQcLAJoVu//etktEZCsWADnDTi2/8tL9c+UR2YEFAPWM3X9v2yUiSgMLgBxhp0bs/onIFAsA6gt2/0REdmEBkBO23/iHksfun4g6wQKAMicv3T8TIhGliQVADtje/TPR2YPdPxFNYgFAuVS07p8Jlog6xQIg44rW/TPRJY/dP1ExsACgwipaUcQTNomoEQuADGP332YcE13i2P0TZR8LAKJZFK0oYsImKg4WADmXl+7fFB/5aw/+honsxgIgo7hztUfRun8WT0T5wAKAcpNI+MhfIiJzLAAyiJ1a9hSt++fKI7IfCwCKVdG6f9ZYRJRVLAAyxvZL/yh5een+uaaI0sUCgPquaN0/8xwR2YgFQIbY3qkx0SWP3T8RxYUFAGUau38iou6wAMgZ2xMdr0xIHrt/IjLBAoAyq2jdP/MmEcWJBUCO2J7o2P3bg90/EbEAoFyzvSgypUPD7TLBEpEhFgA5YXuiS+vSP+oeu3+azfGX37PXy1asOyLteVD3WABQ4RWtKGIepl6duHb9QkjtxvmDzh3Hrb3rCycO3eSlPSfqHAuAHGD335/t0kzs/ovn+auvHwhQud5z1NEKKA84OC949sLfHbXitpemPTfqDAsAIgO5KYqM4zFj00yHDq0v7+886yeegxMmXxMArlJ/tWCgdNtxa9etPHRofTnFKVIHWABQE9sTCR/5S5SOE4du8vbet/I9z3VObPV1pVAuO865e+07fu9xa9e9or+zo26wAMg4Jjp7WF8UGcfjyX80zdCQo/dd+F3XwWmNL7d6a11H/UVJOTcdu+auCzA0xBxjMZ64kRF6fLgER838Qtx7V4NwaRQdUt3lCcyuhTM/SmA4zvQnSTDRiT/ioW54LWDbIKbj+r+myGaijt/3rm85jjq98dVNoz52VgIctOcABkrNeV4plAc9fOz4fU8/OVx7+t/e9r6jHu7rlMkIq7MMY6eWPWndHdD2uyaSvU5Y+9vVnqPOaXxty5iPDSM1jPshHthawabResv32nXk6JLSdx278s5l/ZovmWMBQImIe78fhnZ3/0x0lEfHrrrz3a6L9zW+tnXMx9PDtal/axFsHKnjoa0V1Hw9M4hSe5TLzneOXbPuS4C0OIxJaWEBkFGpXfrHTGcNdv+UpOMvv+eQQU9dCtmdtLeP+3hquNZyDbQ6GjA5TilxBjznw6+87Df/c+zq2xcnP3sywQKAUhP7R82Wd//Mh5QlrtT+XTlYMPnvnZUATzZ0/q3MdTTAdfHXJc+767A1v39e/DOmTvEkwIzQqnRTTfvvAgAtSoD+H0nTglS2O7Htm2sh/qHP27QmZwd+eAtK7tu7+maDtywMtdnAmLdLdjp21Z3vVo46afLfw9UAj++sGhe7436IP24Zx/6Lynj2oubbAjgKL9jD8e942ap1Z9157jG3xjpx6gj/RImIaMpRV961x/wQj7oKewPAaD3EI9sqMw7rz2XyI6U95nk4aM95cKYfb9YYGw+CN9917suvjWnq1CF+BEBERFM8X86fTP61UPCn7eadfyvDlQAPbBlDdfpHAg4WzPe8/3rZynXv7WW+1D0eASAiIgDAiy64Y59n7+U96kAWC4CHtlYw3nD/iV5uJuUohQP3GMDeC0oNAwEoJRW//qk733/c53uaPHWMRwCIiAgAsHghhhzIYgDYtMtvSv690iJ4YmcVz4zUm78gouaVyp89dtXtn41tY2SERwCIiAiv/MqvFjm1gaddpRbVQsEfN481HfqP81bSe80v4bl7DEJNy0C1QH/+jvcf80nzWVMveASAiIjgVwbf5Sq1CAA2jtQSvY/DjnEfD20dRxA2b2TAcz5x7Op1n0tuy9SIBQAREcGDvBMAxuohdlaCpq/F/iApibbz0NZx1IJpRUDJPf+Y1Xf8q+EmqQcsAIiICu4lK9e9quyqFwPA09M/o09QNdB4aOu0KwRE1KBXuuDY1b99R98mUlAsAIiICm6BK/8MRF359BP/kuj+G/mh4KGt46g0XSaonbKnrzjm8jteZ7h56gILACKiInv3XaWS654CAJvH/FSmEGjBw1vHMV5vLAKkXBbn2y9d/ZuXpzKpAsjMVQBnfuWe9y2a71wGmFWaqT36vMP7zH/7LYcZvQenXv37f1o0T13e63ZN9evBMN/9+8ONfv6T//3u9ywsqS8bbq5hu/1/wI3xWyHAD99xhNHPf9KVd797QUmujGO7sT+7oIdnK/zknS81+vlPWPu7d80vy1VdbLan+fUQzuj3/LP3HJX6PvjIlbedscdA6dqkz/yPxs3+dc9ReP6z5mOwtPvXokVtqgY45jfnHv2E4XTIUOaOAPBpdPaw/alwfLpdfuUh+dtiwPXOAYCto37q8548EtB4ToCjZL95nvzw4KGbBlOcWi5lrgCIU9rdf7+3ax4vQ3uvrIr7PTMdZ1H3TzYQ5Sp5jQawvdJ8+L/f3f8kXwse3lZBveHqAKVw2P57LfiG4ZTIUKYKgLg7Okpe0bp/rj2LWN7927BWXnzxrSeUXOfZO8d9hNqGGUX8UPDItkrTfQJKJbXk2MvWfSzFaeVOpgoAmxWt+7dnV0FF6/659uKzoBwd/t9R7e6Wv3F3/43DqoHGI9uraKxLyo7zmSNXrnuV+QxpNl7aEzC1eTyoDtf1nOPi3snZ8jnylkq9NlxrFc/u7iWujxM2j9Tr2524iye7f3eNNg9X6q7bWzzb/zZms2msXnPGwo7ixflRlq1/F70qOep4XwtGa93d+Cdp4/UQj+2o4pC9Jz/+l9I8T/3ncZfeevhtH3zF9lQnlwOZKQBG6rVwIJz7gIXxH2qMO69+HPIbqeqg7DQXQEXY8U8aqfqBZ3i8Ko+/l+GqDly39XeardHsFDutDFf9wIFO4D0zjZdcp5uW/b50wwJXOYcOV5M9+a/X38lwJcCG4ToO2KMMAHAUDgxL3n8AOC2WCRZYrj4CSCP5k13ymPz7GY9mymPyB4DF/qKTPAel4WqyN/6Jw6bROnaM756n66hTj73sN+/r2wRyKlcFgM3S2vHnJdFR8mzt/pPariVH4VMzf9B7pQYwWovvkb/dMnkrnthZxVjDx8Ae9IWHrfn985KbVf7lpgBIq/sv+k7EJkUrimzs1Ioqa90/AAx6OHqsFkI3TD72NR/jD6xF8Nj2KsKJGkApLJiP+lfj20Lx5KYAKJK8JDrmpeyxPdGl9dl/FrkKh9nQ/ZsSAWqBxhM7K1OveQ5OPHrFnXxoUJdyUQDY3v3ndxeSPbYXRaZsnx/NZNPveL+hXz+75DnP3tXw4J+0uv9Ofy87KyG2je++aVG5JBcdu/L2/ToMQ8hJAUAz2Z7oYr9/QbzhqAdpfTRh+5n/NtlrUB2pBaj42TkC0OipnXVUg+izAEepfZTrXpzylDIp8wVA0br/DO5rMsf27jovRRulpzSgDq/44dR7anv3Pz2eFsHj22tTr7tKvenIS+842jAcTch8AUDdy0siYQLLnqJ1/7YtvRLcF48Z3FjNZuN+iM1jdQCAUuIMltQlKU8pczJdALD7bzPOtr1NDrH77y0epctVeMHk4f+sdf+NNo40fBTgqFcdvebOMwzDEjJeAFDyitb9M4FlD7v/zrkOnlPxs30EAIjegyd27L5HeknhQkBUilPKlNwXAEXrhGyfX5Gw+28Xj6svXaKUcvarBTrT3f+ksXqIrWPRVQGOwouOXrHujYbhCy+zBQD3IfYoWvfPBGYPdv+d2+f8nx8Qih5Iex5x2rirNnWDIM91zkt3NtmR2QIgTnlJJLbPj5LH7p/m8uy9Bv+82sHlfzZ3/1E8gR8KNo9GJwS6Lg576ZrfnGK4mULLZAEQ98l/lLyidf9cefZg99+sJOUDakH+7nG4ebSOehD9VCUdfDzl6WRCJgsAmxWt+8/bTiTLitb9c+11p1QO96uF8Z4AaMNjmrUINu6KTgj0Su4Jh11020sNN1dYmSsAbL/0j5JnewLjmsqeonT/EWe/WmD689r9k0y3fdxH1deAiBoccP8p7fnYLnMFQB4UrfvP2D4k12wvnkxx7XXPgezrx3wEwES/TticPBfAc9WyQ4fWlw03W0iZKgBs7/65r0me7QkstSsimOkSZ3tRZExhD1/Pve00Hvkbh+0VH/VAoBT2mr/32Dlpz8dmmSoAaKaiJTpKnu2JLq1L//KiHsr8tOfQThzvmQiwZeIogAO8LYZp5VbuCgDbu392askrWlHEEzazJ839gB/oeXONSfuRv73aOu4j1IDrqBP5qOD2clcAFEnhEl284agHRev+bU103dCCBWnPoRcm75kWwbZxHwA8LTgz8UllVK4KAHb/ZCo3RZHl8yP7+OHsRwBsv/GPqe0TtwdWDk6LN3J+5KoAoJnykuhMMYHZg91/u3jpLtJQI/dnxotEjwuuBhqe470KQ0PMdS3k5pdStO6fiS55thdFtq95slMIabvft7377/SEzW1jPqBkr6P3OOVVHX1jQXhpT4DSl1oisfx+CGSPUIdw1dxPeWX3Pzct7QuAvNk+7uOAxQNwHfcfjlx15/6O6INcRx8IOAcqqAOUwkIAUFALBeJOfaNgTEMNAzIiGsMAhrXWT4onD0rgPBCGg/ff85HDx9L6ueKSiwLA9k6IiS6/2P23i8fVZyuR1pVUXrr/xniBFoz5IRaW3bfMA94SHfSerH8a4wmafikKcCa+vrtcmviPMgDU8PLVd24JIQ8jlLtDR90JL7z9t+877n6zn8YOuSgAKHlF6/6ZwLKH3b8ZrbU796j8GKkGWFju7kee7R1TjuzrAfvCUce5gn+CdvHy1etGQsHvglDfLOLccPeu62/H0FD/b7toiAXANLb/0ds+P0peXrp/Lr106BZvUB67/0kj1QAHLB6YETERCotdhVe7jvNqAJ86du/ThvXKU28PgRvGav63H/jX4zcks+HuZL4A4E1Q7FG07t/2KyKKhN2/Oa1VrUh7xIqv4YeCkjv3OSTdmO2tVQp7uK46xQVOKc0fvPhlq+74faDlR6ETfueec1/5h0Qm1IHMFwBpKFr3X5xdhf3Y/VOvQki1m+/LYvc/aaQWYJ/5JYQC1IOoIPBDjVbPRBABHAU4DuAqBc9V0f87CiVXweBc1Da04zjqyLKjjgScTx69at0j9SD8VuiHV60/7/gnuo3ai0wXAOzUsqdoRRHXlD3Y/Ue0NB8BsG1+SXh6uIandtagxfxCwla/FqWAsutgwFMouwplz0HZcTCv5GCw1NnFFa6DP59Xds+XkvexY1bdcWtdy//dOVz5+mNDJ3VVoHUj0wWAzdL6o2Kio6J1/1x7nRHoukJCh8NNx/X5I5twotPvdX4iQC3QqAUz5+cohXklB/M9F4MlB/PLLuaXHCg1x8mEShwodfyAo47fd68FF+95yR0/rIX6kvs/etxvDafbtcwWALYfCqXkFa37L0Knlra8d/8AoKCmOkx+ZBMfLYKxeoixejj1mqMUFpQdLCh7WFB2saDswp3lQIFSWFQuqTeVy97fHr1y3a1BKKvu/tAx/wWoRN6BzBYAeRD3O2p7orNxZ1hURev+i/bI31kJdiV0AMBs89afsGkab+6BWgQj1RAj1agoUAqYX3KxeNDDooGoIJg8p6BpuyLKcfDKsqNe+bJVdz5aD2+/3FvgXfGb9xw9bvhjGMnkHaFs7/6Z6JJXtO4/dMwicuXZw9r9gMJOIL1L/4pMBBirh9g4UsODW8Zxz8ZRPLqtgq2jPvyw9W9QKRwy4DkXO1X95Esuvf1zh669aWFc88lkAUAz2Z7orN0ZUltF6/6LkugUZCTtOcwlD92/SbxQC3ZWAjy+s4p7nxnF/ZvH8MxIHZX6zHsHKYW953nqEwuChU8cserOz8dRCGSuAMhL95/1nUgWWF8UGcYzxRM2yYQOnZ223/inqCq+xoZdNdy/ZQz3bRrDxpE6qv60YkDpvcpKnz8/WPDYESvuGHrhhb9a1O32MlcA0EzWJ7qULv2j5LH7bxfP4kXqRR8BZF3Wu//d8VqrBhobd9Vw3+ax6MjArlrTxwRKyT5lF59ePDjwyOGX3v6hE4du6vicvkwVALZ3auz+s8f2NWXK9vmRPSQ0KwBsT7BFUvE1nh6u456NY3hgcwVbx3yEEwcGlNL7Dnjq4vG9FvzhqBV3nNVJ3EwVANS9onX/3IXYg91/b/HippTelNKm+y6r3f9s8UbrIR7fUcM9G8fwp+1VDFcmbkqg5IWOg+8dtfL2n79kza0vMombuwKgaN0/E509itb9W32Ym9oKlWyca4zt3T+XXnSJ4fbxAA9vq+LejeN4ZlcdfihwlDppIHTvfsmlt3/h0KH15dliZOY+ALq6y3Cuae2Fk12RurKz1PJeEDFu1+Y/Ul0ZLjmG98KwPtF1EU7Gh0tAj08VNd5u3L9A0+3OEmJ8ZwnK/sI9C1fFqMDbADece2BBZKn7b6ceajw1XMPTIzXsOejhWfPLA4sH3fNkr9GlL7n01nff+8FX3Nzq+3J3BMCE7TsRU7YfaqSZ0qolUtvJcfFZZ/QLJ2wFnHq7r+el+y/i0hMBdlQCPLRtHOs3jWHLqP8XJeX9/PBL7viP56++ffH08bkqAHjySPLSOkTX6hnmvWzX9uKOZrL9vc1C9x9RoqC3pDyJXLKpeKoGGk8OV3Hvpl3OptHam+cHWP+SS28/s3FMrgqAONmeIGy/cx0lz/oOjGvKWgI80/J1ixJYb/EMxxXgyoRQCzaP1bF+0+iBG0dq33vhBTd/+9Ch6/YHMnQOwFx48og90koQeekQqXu2v7fpd/8RBTWW5aSWZWkVJ1oD28Z8tW3L8PIFHv564bn//YnMFAC+dm+CE76r3dfDNvdRTpIWJejXUzUc7xd1Hbwz2i76t90GYZjmiUPqlrqWd/Rzi1q58S6qHt4y0XKL7zhvT2q7oYj5mjL9OWJcooFWt8CRt8UVL0Q6763pR1mJUwi7zf/s/nuLlyq/CkiIMR/PgsJZKT4TioiI+k1E1N6fuuWXoehXNr9u+P3G2zGNV6wCwGRYInMTAcZ3TH5jTRzvMJ4DQERUII89hgHPw18luQ2bk2tn8XJ0ZUJ9bOo/lVKrsHbpgywAiIgK5Pxb7zvMgdqj8bVMJDBq0lFxEgZAMHXl5wY9v/JZgFcBEBEVysaR2jtcC/b87P57i9eRhu5fHPcjuPitYwALACKiwjjjK39cJCJvaHwtEwmMuiICoF4B9NQJ3L/CZcu+MfkPFgBERAWxtTKyWivZU6lsnP/N7r9dPMOBOgD8yuS/Ainjfzd+mQUAEVEBHLPijr/1PPfvAaDmR8+VsD6BUQ8EqDac+Ce4GiuX3904ggUAEVHOHbPqjr8fGHC/BhEVhoJ62OODpSzC7r/NuOo4IOFk8K16oPTx6WMycyMgIiLqzJGrf7vvoAov9lznLUqJAwDD1ej58dYnMB4k6F5QB4La1D9Feedh5ZKd04exACAiyomjrrxrvifBwai5h3kOznJcfapSanFjGt8y5qc4Q7vlovvXIaQ62vjKL3H50q+2Gur93Tf/MCOi7ffTjjOW8Rse83ZNpXbPcsN4pqz/OWJcL3n4GYAMzM90s7b/HHHeQU4DgAeUW39953iAih/ancA6imc4rjBHEwRoSv4yIm757YBq+RuYcQ5AHpI/9YbJv90wLtKkMfn3tNlZBaHgqeFqDJGKzeriqToK2X3JHwTqXKxZ8ki74YU+CZDdP6WlcImJay9VQSh4eNs4Ai12J7CO4hmOK0qBXxsDwt0f7yjId3D58q/N9i1N5wDkpftnorNH0bp/Lj17WL9W4k50bV4fq4V4fEc1V2f+267vxUl9HAhqjfE2aFV671xxeRLgHIrW/TOB2SMviYlFVv+JAKO1ENvG69hZCTr//g62YxYvH92/lc2lX4se8ztJUJOSOgerl26b61u9p4ajSwXifkx1/G+k3QmR8+sef3e9xsvH/EzF+9jVfPzuJkdpAfyJ6/xDPfN7rUxgBRVLceLXpu7zPxlPIB/A6uW3msT2dtVSviY0B3+ANs+ts3iWb9c4XnHml9rcctKpFW1Nxcn+98w0XkpHxnrVkPwnKZE1csUbvmwawgGY/NvHY7mcNO6oe4tHycvNmrItgdGc2hYn05L/xHv7Y71V/Usn8Qt9FUA/2Z5I0iraKHm2J5Lcd2oFxu6/t3gt+dUZnT8gt8kAluGa5WHL72nD+CRA2xOJ7QmWkle0NcUDVPawfk3ZlMCoe/Xx5hP+AIiWB8QpnY4VSyttvqstL1pA2Xg0ZN7ZnkhsT7DUPdsTie2f/VP3iremTONJ079QG4vu8d9IqYdE8DdYO/cZ/614UEog/a0AbE8k7NTyq2hrikvPHkXr/jN/Yx1biAC10aab/AAAFB7RyvlrfHnZ092G9iCiAeXOun3DYEx0yWP33y4eF1/SbE8kthdtlDz715RpvImBOoju7S/TbuKk8IjW4Um4fPlThptuyRGNjk4a6BfbEwk7tfwq2ppi8WSPonX/3D/OIqgBlZGZyV/kfh3g1bj8b5/sdROOAma9P2RanSR1j91/b/EoebYnEn4MmF+Z6P7r49Fn/tMo4E7tqlfjy8u7PuzfyBOFMKunAOblj56dWvYUbU2xU7MHu//e4llNNFDdFR36n0YpdV1YH1yOq04fj2tzjhLd9giA7Z0kdY/df7t4hgMpcUXr/rn07JFKceLXIOM72iR/5+rwWevPiDP5A4AnUDqrRwBM5OWPnsVT9uRmTbFTyxx2/+3iWbj42p3lDwACXyucj8vO/lISm/YAtNiq/d0/dyLJy00CM45nOM4wHiWvaGuKHwPaI5Y1ENQnPuuXmcWJUht1oN+IK99wS5dTnJMHaL/odwTOyx89i6fssX5NsVPLLXb/vcXriejoRL/pN/aZoAS3h6GcjSvfEMvJfu14oqWqpuX/vHT/3IUkz/oEZhzPcJxxPK4+WxRtTXHp2WPmeyFAvQr4lWmvTg0UpZy1oX/wB3HV0S2PzsfJA1Qt6Y3kgfV/9Mbx4t0uJc/2RJLrTq3g2P23i9eFMIgO90ubW+8INmtx34Urlv2gm/Dd8ABperJA0bp/JjpQiIGnAAAgAElEQVR7WF8UGcfjCZtZk5s1xaOj9tFhdLi/1Ul+iIoTpZzvh379Xbhq+dZ+Tm1GAUDdsz2R2F60UfdsTySZ6tSoI+z+24zTGqhXojv6tR81osX9INYu+4ph2Fh5AnT8CEHbEwk7tfwq2ppi8WQP69dUSgmWppk8wc9vfYJfw8D/DiX8F1y+vOdb+nbLQxhW4U1MJ61ZFIjticT2BEvdsz2R2H7jH0pepteU7O74Z4ungAfgeO8P1iy50WyryfEE2JVEYNsTCTu1/CramuLSs0fRun+esIno5D6/0vYz/imCijhYGY6OfhZfe7sVH717omUEYKKzCbv/dvG4+JKWl0TCjwHzy441JdEhfr+K6Wf1t4inAXw3DORDuGr5E2Zb6w8vlHCklNLGbU8k7NTyq2hrisWTPdj9t4uXATqMTurzDRt4hZtDqA/jsrPvSnZi3fGg9XBanSR1j91/b/EoebYnEn4MmF+xrikRSFCPEn+LB/W0jKfk5lDp87DmjbcbTSQlHqBGoiVu5yOB8vJHz04te4q2pnLVqWUcu//e4vVMBAjr0a165/psv5GSX4YhPokrlt+c3OTi44VhsAMigJq9AEirk6TusftvF89wICWuaN0/l549ZrxnooHAjxJ/Q9Kf8z0T+ACuD+BcirXLEntwTxI8wNkeFQBpT6V7efmjZ/GUPblZU1nt1AqM3X+7eMYRgTCc6PT9GSfzGXhGw7laS3g5Ll/+TKffbANPS33TXL9Z2ztJSp71Ccw4nuE4w3iUvKKtKX4MmJTJhO9Hl+4ZHNpv/U6o34vG2jA4+Gv9eGBPkrzQK2+E6LTnkbi8/NHzhM3ssX5NWd+pUbcK3f3rMEr0OoxO3tO7O/wu9nubFPR3UHb/f//Ss3/X6TfbyntOUN44El2n6LQaYHv3z12IPXJTFBnH4+qzRdHWFJfeNKKjE/YmE73u+HB+K8NKq59oR30j3BReh2veEEtQmygAOPKiX+xQ5Xl7thqQlwLAZH42z62zeJZv1zheceZneyLJTyeZkzUV43btf88MBlVGIHNcorc73qwBt0PkJ1o514Rqw4+x5v2zPckn8zwAEMF2BcwoAIqWSCh5hdtRG8aj5OVmTfHoaLOgBohZ8m9J4QEAP9Za/TTcd58bMXRSD8GyJXoMkA53pDyPzLA9kdhetFH3bE8ktneSlLz+rykB6pVO9nsCkQcB9UvtqJ+HvvMzfHnpZsPp5M7EEQC9bfoXbE8k7NTyq2hrisWTPaxfU5YXbX1XryA6ha0NhV1KcDeg1omSdX4ot2T1kr0keACgQ73RtfhugFljeyKxPcFS9/KSSPgxYH7FtqZ0CATV3eMET0LhPgX1B3GcuyFyd33ve+7D0FD+L3PrkgcAoVJPl7QGHLejb7Y9kbBTy6+irSkuPXuw++8tXmzq41P/qR314WDVskv6PIPMiy790/rJxnePiS557P7bxePis4XtiYQfA+bXnG9ZUAe0H40T/WCw196r+jGvvHEAINThY9DJHCWxPZGwU8uvoq0pXkNuD3b/7eLFQZq7f/H+uUhn7scpOgLgOn+aPJEi7k6Susfuv7d4lDzbEwk/BsyhiRP/ou5fvhesXfrTtKeUVQ4AeOFz/wSd3v2A8/JHz8Pc2VO0NcUjWfZg999FPB0AQXUyYEUp7yOGYakFBwDWDx1aFwm3p9VJUvJyk8CM4xkOpMQVrfvn0ktQbWzqPzXUxbU1Sx5JcTaZN3X/fx3qp9KcyFzy8kfPRJc9uVlTKXWS1D12/w38KiYf2SuCx4JS+AXDsNRGYwHwuMlTAZnA8sv6BGYcz3CcYTxKXtHWFD8G7JBowN994l8I9c9YsbyS4oxyYXcBAPwp648FzssffVon/1H3rF9TlneS1L1CdP8Nh/5FyzXhmmXXGYalWewuAEQenusRirYnWEpebooi43hcfbYo2pri0pvg1wDtT/5rZ13L+9OcTp5MFQAh5I9J3QvAJtb/0RvHS2e71D3bE4ntnSQlz7ruXzTgN574h4/xXv7x8Sb/Q4l7/2yPVMxLVU3Js74oMo7H4ilrcrOmeMJmpDo69Z9Ky23+ZWdfmeJscmfqCMADQ6/ZIFoPpzkZW9ieSGy/8Q8lz/ZEYucd5CgOfVtTfg1TTanA16XSewDFpRAjp/EfoqXliYC5qaoN41HyirammOjsYf2asrxo64tph/5FnIvqK866N8UZ5VJTAaBFHpzrRECKWJ9ImMAKz/ZEwo8B86vnNdVw6B/AH+r1536mtxlRK00FQAh1P3TzeQC2JxIe5s6voq0pJjp7sPvvLV5P6hU0nI9W1x7eiquO9mf7FupO8xEALfcW4UqAfmH33y4eE5gtbE8k/Bgwv1q+ZToAgkrjmC/6l579u/7NqlimfQTg/a6bjwBsTyQ8zJ1fRVtTvIbcHuz+28XrlgDVsYZ/yr312sGf7zoczampAHhw6H89KtC7Jk8EZKdmj6J1/1x59rA9kfBjwJyojQOYaEAFNXHKb+Gh/2Q5018IQ/ljEicC5uWPnokuewq3pngkyxrs/g3jBXUgrDV8Xf6tvurMewzDUZdmFAACuQc6YALLoNwkMON4hgMpcUXr/rn0YiQaqO8+9K+03FHfJBekOKPCmHkEQJzfpnUpYF7+6Jnosic3ayqlTpKSl9vuvzra+N0jUiq/Bdcs5/XofeDNeEXL7RKa/e65E8ke6xOYcTzDcYbxKHlFW1M8YdNAfRyNt6DXjjrXX3HmwynOqFBmHAG4H7ffDcg4xM4CLDd/9Mbx4t0udc/6NWX558iUvEx1/6EPBNWpfyqtvuWvXPY1w1AUgxkFAIaGtNbyIOY4CsBOLb9yUxQZx+Pqs0XR1lRh94+igVrD3f60PF5V896T3oSKaWYBACAU3GXrEQAT1v/RG8dLZ7vUvbwkkkzeQY6MWNH9N3/uH4TivBVrThsxDEUxaVkABAq3Imh/+aXtCZaSZ31RZByPxVPW5GZNFfWEzWmf+4uoLwZrl92S4owKq00BoP4HAFo9GTAvbE8ktt/4h5JneyKx5w5yFLfE1lRQb/rcH5Bf1Z8Jh8xnRnFqWQA88olTntQimxAGM75mfVVtGI+Sl5tOzTie4TjDeNQ969eU5UVbInQI1Bs+9xdsdtzBN/KSv/S0LAAAQER+N/3JgEVjfSJhAis82xMJPwbMr87WlEx/xG8QanlTZcXpT8c+MTLWtgAI4Nw6/QiA9VW1cTzDgZS4oq0pJjp7sPvvLV5HqqOYus9/NJfPBmvP+VkCW6IOtC0AwrB2AwBk+WqAfmD33y4eE5gtbE8k/Bgwv0QQnfSnG04qF9xYX302n/JngbYFwINDr79TRHZMHgWwPZHwMHd+FW1N8Q5y9mD33y6eoekn/WnZUIN+C6C4ei3QtgAAlISCO1udCEjJKFr3zz2APWxPJPwYMINmnvRXCz05G2uWb0lvUtRolgIACCS8uZMHA+Xlj56JLnsKt6Z4JMsa7P5bB5NK00l/0ND/EqxcfpvZVqgfZi8AgB8DgIT1/syG5pSbBGYcz3AgJa5o3T+XXg9qzSf9QXCFv2b5FanNh1qatQB4+FOn/U4Em+P8GCAvf/RMdNmTmzWVUidJyctF918bg4SNd5KVX9X22ef9Zlugfpq1AACAQMJbogJg9reeOxF7WJ/AjOMZjjOMR8kr2priCZvT1CtAUNv9by1P15R/NoZO4slkFpq7AIC6HhDM9XTAOOXmj944Xrzbpe5Zv6Ys/xyZkmdt9x/UAb+ye5xIVSvnbKx60yazLVC/zVkAeCGuhagA4SwPB2Knljm5KYqM43H12aJoa6oQ+0cdND/eFxCt3H/01yy7Pa0p0dzmLADWD712e6j172crANJg/R+9cbx0tkvJsz2RZOIOctSVvnb/ooHKruZxoi71Vy/9P2bRKS1zFgAAECi5sd3HAOzU8sv6osg4Hk/YzJrcrKm8n7ApMpH8myZ2bW3N0o+kNCPqgFEBIA6+BaD5do4ZkJdEwgSWX7YnEj7yN796f88EqO7C5O3io3Fyd608/mbe6S8bjAqAB84/9R6t5U8Imu8HYHuCpeTlplMzjmc4zjAedc/6NWV50daz6iianhir5Sl3sPw6XPzWsf5MgHplVAAAQCi4LvoYoJhXcxSt+2cCs4ftiYQfA+ZX23eiNobG88JEYZf25PTxi87c0JeJUSyMC4BAy7cBABN3BWSnRqas79SM4xmOM47H1Zc0dv+9xWupPt58rT/Eh3hv9Fcuv7uHqJQC4wLgwaFTf6W1bIyqPu64Wila988EZg/bEwk/BswJvxr9r0Go8YHa6rOuT2lG1APjAgAANNSPAEACs5MB2amRKdsTie2dJHWP3X+7eNMEtaj7b6C1+wX/snMuN4tItumoAAgkjK7rDPhwoG4Vrftn/rKHNYmkbTxe7WKt0I8+928i/6d+2ZKPpzIfikVHBcADnzrt12GoH4UOpy79aMf2P3omuuwp3JrieSyZk8vuPwyiy/0aKfWT6kb5B7NoZKuOCgAACLT6XvQf2bonQJbkJoEZxzMcSIkrWvfPjwHnEAZAdaT5NS23VZ1wKa5Z3r8HxFAiOi4A6vCugoLM9jFA0f7omejskZs1lVInScnLTPevW3T+gj9WxT0dK5ZXzKKRzTouAB4d+l8PhqHcDQhsez5AkVifwIzjGY4zjEfJK9qaKuQJmzqYeYtfwZMK6mSsXbottXlRrDouAAAg0Prr0X/U5hjZXm7+6I3jxbtdSp7tiSStTpKSl2r3r8NWyX+Ldp1TKmuWPWUWibKgqwIgBL4KhbFWJwNyF2KP3BRFxvF4wqYtCrem8nIkS4cTh/13z1QpNRw66nX1lUvvT29ilISuCoCHh04bCUK5DkCilwRa/0dvHC+d7VLybE8kVt1BjmIVe/c/mfxFN7484qvwVH/Vsjs7niBZr6sCAABCpa8EMFEARCuMZ9Rmj/VFkXE8nrCZNblZU3k4YbNV8hc1DrhLg5XLb0thRtQHXRcAD3zytJ9rwUMAAL/7cwH6xfZEwgSWX7YnEj7yN7+M3jMdQioj05I/KuKos6qrl/wssclR6rouAADA1/pqAEBQ72AnwkSXNbnp1IzjGY4zjEfds35NWV60zWnqUr+mE/587bpvqq1a+tN4NkK26qkA8GTwChEZASQXNwYqWvfPBGYP2xMJb6yTQzoAqqOQps/8xdeO8+b6yiXfT21e1Dc9FQDrh04aDUP5lgBAUJ1rOBNdjlnfqRnHMxxnHI+rzxZF6/5njTeR/Gd0/qr0d/VVS68xmwllXU8FAABUXfdiiIQQAcL8PySoaN0/E5g9rEwkTfEMx/FjwHSFbQ77O86b66vO+nZq86K+67kAePSTr3lIa/wcwKwnAzLRUV4SSVqdJCUv991/UAdquxrGCSCoaVU+h51/8fRcAABATeQCANFZpAU4CjCXonX/zF/2YPffW7xcC2pAfdojfQUVcUvL6qvPuDadSVGaYikAHh469RdadHSjiBZHAWz/o2eis0deEknh7iBXIJns/v0qUB9vHqelIq67rLbyzOvMZkB5E0sBAAB17V0IgEcBDOUmgRnHMxxIiWP33y5eThepX4n+10gwLs7gktrKJT9OZ1Jkg9gKgIc+ffJ/C+QBAFG1OXl3wJz80TPR2SM3ayqlTpKSZ033Xx+b2B83GRbg9bVVr7/BbOuUV7EVAABQ0/JFANEqTPAZAUVhfQIzjmc4zjAeJa9oayp/J2wKUBuduR/WsiWQ8G+qq5fdlM68yCYq3nCiDv38DX90oP4CAGRwkdEmrP+jN45n+XaN4xVnfrYnEms6ybbxDMflZU3FuN3E3jOZSP46aB6g5anQdV7Dp/rRpFiPAABKfI1/m/pnBp4RkHXcUfcWj7pXuDWVhSNZoqNr/Kcnf4UHRavjmfypUcwFAPDgp177da31fQCiy07m+Kux/o/eOF4626Xk2Z5I0ur+KXkdvWc6ACojgITTg/zO9dQJ1bXLHo9/hpRlsRcAAFAP9Oendob++OyDKXHWF0XG8XjCZtbkZk3ZfsJmUJ95d79oQzdVymMnjF68dHPMW6QcSKQAeOizr/tmqPEbANFtJ3U4x3fEw/ZEwgSWX7YnEj7yN7+kXp15gx8AEP29imw4FRe/tcUXiRIqAADAF/kwlIr2E/VKyzFMdPbITadmHM9wnGE8Sl7Run+joq3e4hp/AMpxrqrsvf5srHk/T8SitmK+CqDZiz9z/fWu45wKACjNA7xy09fT2FkXrfvPS4LNw/ysTiQdxTMcl4P3LJntmsabZaAIUBsDQn/6qFCLfLS2+uxLDadDBZbYEQAA8Ev4MATR6ah+pWnls1PLHut31MbxDMcZx+Pqs0Uhkr8OgcquFslfxkLlnM3kT6YSLQAe/vhp9wWQr069kJETAtn9U1rY/beLZzgw78I2Z/prbIZyTq6vXPL9dCZGWZRoAQAA9bL3UQG2AIgW78xDVm0x0WVPXhJJWp0kJS+z3b9fmzjTf9p2RR7UcF5RWbn0NsOpEAHoQwHw6HknD9e0/vTUC/VKLvaGRev+s/+O5Qe7/97iZc/E5/31FkdQRf3SC51X1NYseaT/86KsS/QkwEYv/sxP7nIdHCUA4JaA8vxZx+dmp2T5zjCN+dk8t87iZbST7Dqe4bgcvG/WvGeigerojEupBYACvj5eOeiduOpo33AaRE28fm0odPFeV/BrAB5CHwh8wCv1a/OpyMOOsLN4hgMpcUz+7eJlaJGGQZT8Z/x04usQH6lddvaqNKZF+ZH4RwCTHvzEa9cFWq6cesGvRNVtC3nZKVHybE8k1t9BjrqWaPdfr7a7s9/O0Bl4PZM/xaFvBQAAjO7c9REt+FP0L2l7g6AisT6BGcczHGccj5kuaVxTvW03ESJR19/i5j4A7g+BY2orTr+x39OifOprAfDUiuWVWl3+GWrib1YH0QODGuRmp8QEZg3bE0lan/1T8jp6z3QYXeIXtvhIX/DT8Up4XG312Q/FO0Mqsr6dBNjoRUM/+U/XxZumXhhYCDgugOIVACajcvM7MY6Xk/lZXgDwhM1+bNdwnF9tfZY/IFqcL1ZXn3U+oFjZUaz6egRgksyr/aMInph6oVYBIPlJJLy0LnNyk0hiPvmPkiaQ6q42yV+NiCdvrq5e8nEmf0pCKgXAA/965q5KNXynUpi4tiXk+QA9sr4oMo7HEzazJjdrqt9Fmw6AynDrQ/5K7g1dvKxyydnfNNwcUcdSKQAA4E8XvO6nftBwVUDozzgfoBXbEwkTWH5Zm0im4qUzP+qCXwGqI2h1JZQSXDM+PvDy2qVLH0xhZlQgfbsPQCs1PPMhR/Z/taPUoSIA/Gp0LoCT6rRyKzedmnE8w3GG8Sh5ue/+RQO10aj7nz5OMK6V+kB19dKrDTdD1JNUTgJs9PwLrv/LgcC5Q4CF0SsKGFwIqNYHJ8xOmitW95+XBJuH+RWt+8/De5bMdlu8GNajW/o2RJkap/AoSjhn/EvLfmu4CaKepfYRwKSHP37afVUtH9r9igD15j+Shq9QwqzfURvHMxxnHI+rzxbZS/4T+7Ra8139Gsb9YDycdySTP/Vb6kcAJr1w6Cffdh0sn3rB8YCBBU1jYu3UjGPFt81Etmscj/PrLV58yYTdf7t4huOM41lQAOgg6vqnP74XgGiMC3BeZfWyNYahiWKV+hGASbvgv12LrJ96QQdNd8Nip5Y9TCSUlvSTvwD++MSJfjOTvxZ5AAM4gcmf0mRNAbBh6PTxuuMugWDn1ItBPfrcLCXs/tvFMxxIXWP331u8VOkguqOfX231VVHKuaoyvOsIHvKntFnzEcCk5w/deEbJCb+roNzJ16Q0D/DKc34vT/5rF8/e+dk8tyhe2p3kXPFYALSOl9IJm36l3X38AZFt2lHvqqxY9j3DkESJsuYIwKSHh17zg0CrLza9WB+PHo1poTzsCDuLZzjOMB51j8m/XbwUVt/kTX3aJn/1M1HqJUz+ZBPrjgBMeuHQ9f/lOs6ypj/mwYVt7xHA7r9dvOzPz+a5JbNd03gsAFrH6+cJmwLUK9G9/Ft+WVU08OnKqiUX83a+ZBvrjgBM8nDQm0It65perI5FT8zKGOt3hMbxDMcZx+P+MGlcU71td1ZhAIzvAvw2dzAV/FaVysdUVi39EpM/2cjaAmD90KH1er1+hgae3P2qTFxS03z7TNu7f0qe7Ykkre6fEiAT+6HqLkDCme+FqJoo+fTYhvCY0Ytf/4d0Jkk0N2s/Aph0yOdufEEpDH/lKDx76kXlAIOLABVN3/YCwOxkOMNtmg3LT6dmHM9wnHG8fBQAPGEz5u0GdaA23vTVpvdC1H3iydvGL1l2p9lWiNJjfQEAAIcMXXd0WTn/o4A9pl5ULjC4AGL4I9ic/DvarnE8zq/7WEz+rePlZE11s10dtj0ZeeL98AF1+dj4cz+Cq45u8Xg/IvtkogAAgIOHfnziPCXXAWr+1IvKgZQXAM7cn2TkoQAo3I7aOJ7hOON4LABaxzM6Jc4wluE443gJ/k78atvHlQsE0PijVvK2yqqz7zCLTmQHa88BmO6xoVN/URP3DRBM3RlIpp6sNfORmo3ykPypP5j828Ur4CINfWB8pG3yh5KqVrhwTJ4+gsmfsigzRwAmPe+TP3rLgOd8TUG5u3dJKnpugOO2/J68FACF+pzWOJ7hOON4LABax8vB+S6m253lcH9DsFtRGngPT/KjLMtcAQAAz/vUde8bcJ3VmH4EY2DBjPsEFCn5R/E4v97iGRzmZvLvMZ7hOON4cf1eBPCrkHqba/qjIVu1qPPHVy+5ynB6RNZq3TJbbufN37hz8ave5Luu+ms0FjGhD7hedJUAtWX9jto4nuE443gFPMxtqb4n/7AGVEch7bt+UZD/UF75jLGVZ/7ScHpEVsvkEYBJhwz96L0l5axufG4AAGDi2QHs/nuNZzjOOF5O5hfrCZuG49j9t4nX4+9FguiyvokbjLUcp/CoOM57xy456wbDaRFlQqYLAAD486Hr3lZSzlUASk1f8AYgpUGjGCwA2sWLM1ZOfnc8/N9jPMNxRrF6+Z3o6OS+oD7LOBnVwCXj4wf9Gy/tozzKfAEAAIcM3fD6MsJvQzVcIghAHA8oz5+6YVArTP7t4hmOM46Xk/nFmsBMYzH5t47Xze8l+py/1aN6G8aJQH4UKnygumLZo4bTIcqcXBQAQHSfgAHgWqWwGGj4Y1YOMDC//RUCLADaxDMcZxTL3rlF8dj9t46X/fdt9xCJ7tnf5ml9u/cX+l6I84HRlUt/bjgNoszKzdlyjw2d+otKrX4aRHY0fUE0UB3t6XHCedgRdhbPcJxhPOoek3+7eB2svqAGjM/yqN4o4E5R+mOje/zhCCZ/KorcHAGY9LzP/uTwUqh/pJQ6cMYXS4NAaWDqn+z+28UzHGccz6BTM45lOM44Hrv/1vGyv6YQ1KNL+mSWJ4gKfFFypSfOJ3euXLLTcPNEuZC7AgAADh66bv+SVj9wHPWyGV90d58XEGcBYPWOsKN4huOM4+VkfhYXAHzPpgl8wK9EN/SZ3Y8F3kdGV5yx3nDTRLmSywIAAI668q7S8IbN/+4q9daZX1WQ8jzALc380jSZ3xl2HM9wnHG8+ObH5N9rPMNxWV1TE4l/suNvN0xEfiuizhtbtfSnhpskyqXcFgCTnveJ6z5S9tQFgGq6RaBAAG8gumfALHKRwIzjGY4zjpeT+RWoAMjkezYt8bfdruAhDfW5sZVL/q/h5ohyLfcFAAAc9LEfnjZQdv5TKWdPYNqOVbnRLYRb3D0wkzvDnuIZjjOO1//5Mfm3i2c4LktrqkXib7PdjRrqwrGn/MtwzfI5PxcgKopCFAAAcMhnr3uJp50fKODgmTtXBZTnAW656dVcJDDjeIbjjOPlZH4sAHqIZTjOOJ5EowM/uo6/zcl9DZf+DYeCS8ZVeDFWLJ/lEgCiYipMAQAAh3zxp3uosfpXXVctbTnAKUWFgHLyk8CM4xmOM45n7/yY/NvFs/c9AwRSq0b37Jc5Hv8tsgtKXYkavrhr7dJtZrMgKp5CFQCTDv7UdW8vO2oVgEUtB3iDEG+g5ZemszqBmW2yYImEBUD7eBae7yISndHv1+YeLXpMw/mKckqf23XJ6VvNZkBUXIUsAADgwE/c+IJ5bvAdpXDE9K+JILpzYHn+rE8WtD6BGcczHGccL/vzY/LvNZ7huHZf0EF0mD/wJ8bNElD0GOB8RZj4iTpS2AIAAA4d+k65oudd5Dnu/0bDXRGbdl5e882DGtmcwEzj2Ty3KJ7hOON47P5bx7PkfJfQjx7S03ANf9vfiWAUwFeB+Z8ZWfHa7YZTI6IJhS4AJj33E9efPejgy3CwT8sdl3Kiuwg23DfA+gRmHM9wnHG8nMyv2wTWZawoXnGSf1M8keh2vX7rz/dn/F4EOzTU2lJ54cU7Ljx52HBaRDQNC4AJB3zoh8+aN99d47h4A6TN78VxJ04SdO1PYMbx4oxVnOTf2XZN4xWsANBBlPQbHsk7c5sNwbR6Qly5YsB112696MxdhtMhojZYAExz0Md+eFppwL1cCQ5qN0bcUnQDoVkeMwzkaEdtHC8n84txu0z+LSIF9eikvrlv1QuJfjP3SuisHd1rj69g6KTun+pFRE1YALSw34dvWLBgXnCx66p3QTDjOcJTO7nSwMT5Aa1/jdnfWZvHs3luUTx2/63j9el902HU6QfV2cc1fAcUfu6LWjF+6VnXG26eiDrAAmAWB53//VeUvNLVCuovJ1+bueNSQKk8oxDI7I6663g5mV8KBUBuk79E3T7CenRWf7txzeoQ+UEA57NjK86613DTRNQFFgBzOHRofXlMP/rxkuN+EIJF7XdeCigPAF4ZQAdPGjScRx4SrM1zS2a7pvFyVgBMJv3Qn31c80aeCAVfhSdXjF68dLAKz90AAAiLSURBVLPhJomoBywADD3v49fup7zSpx3Bu6DgtR+pIN7MIwKtpL6jji1eTuaXgwIgtfcsnDzEP/sNe6ZtVgvwayj36pEnqt/gffqJ+osFQIcOHPrxYQOhrFIKJ7YbE+3Q1cTTBmc5R8Bwm7lJsEaxDLdpNqxQyT+KZzgujvdM9MR9+WuQNvfln7ldACLbBPhPUVi769KlDxp9IxHFjgVAl55z/nVnlh25WCnn+Y2vt9yhuxNHBJTbMM5MkZJ/FM9wnHE8FgAzY/Xwnk0m/WD35/odvBf3ilJfGdnlXY2rTh83/DYiSggLgB4cOrS+PBY89j5XyYeVcg4A5tihO6WoEHC84iVY43hxxmLybx2vw/dsKum3vnRvjmibReO/1Lzy1TsveN3dhlMkoj5gARCDQ4fWl0f9R9/tKeejcPCcucYL3KgQcEuz3kuAyb/XeCwAWsczOGFTNOBPnsHf/vB+m0h1KOcWLerrI7sO+BauOrr12YBElCoWADGKCoHH3+068lGl2hcCTftf14vOFWi4zfDucTlJsMbxDMcZxWLybx1vlpE6nDp7X0LDz/Sb/3mvKHwz8J2vjq06c5PhlIgoJSwAEnDo0PryiP/oP5dc51wFPHf611vug5UTXULolaeeQJiLS+uM4xmOM47HAqB1vIaRgomEXwfCsCmK8drT8hQc9e3ALX1l9KLX3284DSKyAAuAJA0NOc+pHX6G53ofcBznVQCU0Q7d9SBOKTp5cI53yPoEaxzPcJxxPJPD3HFv0zReism/ocuHnvngnalxs1IbBfo6cdW3hi866+eAMp0CEVmEBUCf/Nn5P3h5STnnOsASKNX6+cINpvaojhd9PNCmGDA7HG42xyIl/2S2axqvj/PTYZTswwASBnONnthuy0NUGwT6eiZ9ovxgAdBnfzZ0/YFeoD/oAG9VSu3TakzbPeu0YsD6BGscz3Cccbz4Emzmkn9Dwo8u05PO4jV/RPAkHOfawJVv7rrwrFvNIhBRVrAASMlRV95V2vTExuWewjsU1KuV2n2TAKN9tXIgrgc4ZcCd8byiJlbfQc7i5N/Zdk3jxTy/Ngm/y3giwL3Q+sbQ8/575KIzbjebBRFlEQsACxxw/g3PcXTt7SXPeTOg/sLke5oTnQK80sQRAm/qJMJonNkcWAD0ul2TWD3OTXSU5HUYHdLXZk/GnWNuFQC/1kr9CNr7/s5LXve4UVAiyjwWAJY54KPXnlwqu+9wBKfCUXu0GzdrolNudFTA8SBOc0HQNp7B3Jj8e43XwfxEAAmis/N1EHX4076/6/mJPCBQN4YIrhtZtM/PMHSSWSVBRLnCAsBSR115V2nTk8+c7in1BiXyWii1ePJrnSdiZ6IgKAGOEx0paDlujngsAHqM12agDqMz8nUQHdLXYdTtxzQ30bIFSm4TpW4ShR8Of2nJI4bfTkQ5xgIgAw4dWl/eWXv8DM8N3+AIThGlFpl836xJQrnRxwWOC1Eu4Mx+HgHQwbXhJnMrYvIXPdHRh4BM/G/apXjxPKRHtkA5t4WCm5Xr/XTHha+712yWRFQkLACy5pzvuP/fgeVXePOcJY7CKUo5L0aL97GrBOY4UWEw9RGC29FNibrebizxbCgAJpK86CixTyZ40VFnbxSv8yJLRLYp5d4dKvUrx8UN27/w+tt5mR4RzYUFQMbtd96PDvEcLHEVTnEUXglgPhBzInYcCJzmAsFxWj7HwOr7EvS6XZlM8AJICNGNyV63PWwf688hytei7wPwG1HuOrjurezwiagbLADyZOLogDNPnehodZxycYJSzsJ2w7u6Nnw65UT/cxwI1MS/1UShgN3/7ma7ZsN6KAAk+p80/0+0BqAbkn3r5N6Xn0M5WyByRyi4VTt63YL53m0bhvgoXSLqHQuAPBu6yfuz+tgJAP7GgRzvKBwOpfac/HIsBUDjuFm/OlkcICoUgBbFwe7/lsZ/q8avSdOGpCkxT5vBZFIHJrr1hoTf9mdI6aMEDR+QRwXyRxHcK1qt0wPer4a/+PodhiGIiDrCAqBg9j/vewc7cI9TrjpaaRzpKByNWU4qTO+z/5gTcVrbbf3iFoHco0TdHwjWK0/uGZzn3s3Onoj6iQVA0Z3zHfeAQ+cdjpo60lE4HJC/VMCLlFIHAFA2FwBWJ3+R7aLwhGh5HA7+FIrzILzgHm8g/P2WoeWjZjMiIkoOCwBqaa9//ekeAzL+Ukepv1Ku+nOl8AIlcrAo9VwlaDqvoKDdfx1KbRAtj0PwWKjkUUepR6SkH9LBwgd2XHjysNlWiYjSwQKAOvasj157gBvoF7sDpYOh5DkI5UC46kAlOADA/kphbwAzbiyQRgHQ6TZFMAyFLRBshcgzADZpx9kAYBM0nlaD3tMq9DdsvuDMTWaRiYjsxAKAEiDqWR//7v4Ki/bzfH9/Kct+0LKfiCx2ldpTRO+poBYrpRYDMl8mLl1UggERGYxiqEFRKAOAUmo+INHtC7WqipK6iEBBNETtPpzuqFGBhACgoOoAxrXWw1BqBKJGBLJLA8NKMALP3SkhdsDVw45X3lnfVRleqPxNT61YXunrr4qIiIiIiIiIiIiIiIiIiIiIiIiIiIiIiIiIiIiIiIiIiIiIiIiIiIiIiIiIiIiIiIiIiIiIiIiIiIiIiIiIiIiIiIiIiIiIiIiIiIiIiIiIiIiIiIiIiIiIiIiIiIiIiIiIiIiIiIiIiIiIiIiIiIiIiIiIiIiIiIiIiIiIiIiIiIiIiIiIiIiIiIiIiIiIiIiIiIiIiIiIiIiIiIiIiIiIiIiIiIiIiIiIiIiIiIiIiIiIiIiIiIiIiIiIiIiIiIiIiIiIiIiIiIiIiIiIiIiIiIiIiIiIiIiIiIiIiIiIiIiIiIiIiIiIiIiIiIiIiIiIiIiIiIiIiIiIiIiIiIgo4/4fEJ2Fux+M+rgAAAAASUVORK5CYII=;" vertex="1" parent="eBhDLRAJo3qDtjfBZI72-25">
          <mxGeometry x="425.39181567053566" y="114.66775363590114" width="46.69096276734471" height="46.69096276734471" as="geometry" />
        </mxCell>
        <mxCell id="eBhDLRAJo3qDtjfBZI72-15" value="" style="rounded=0;whiteSpace=wrap;html=1;fillColor=none;" vertex="1" parent="eBhDLRAJo3qDtjfBZI72-25">
          <mxGeometry x="418.74943052391797" y="107.6780816710818" width="57.76083414687059" height="62.97007947228996" as="geometry" />
        </mxCell>
        <mxCell id="1" parent="0" />
      </root>
    </mxGraphModel>
  </diagram>
</mxfile>
